<?xml version="1.0" encoding="utf-8"?>
<!-- Generator: Adobe Illustrator 16.0.0, SVG Export Plug-In . SVG Version: 6.00 Build 0)  -->
<!DOCTYPE svg PUBLIC "-//W3C//DTD SVG 1.1//EN" "http://www.w3.org/Graphics/SVG/1.1/DTD/svg11.dtd">
<svg version="1.1" id="Layer_1" xmlns="http://www.w3.org/2000/svg" xmlns:xlink="http://www.w3.org/1999/xlink" x="0px" y="0px"
	 width="216px" height="216px" viewBox="0 0 216 216" enable-background="new 0 0 216 216" xml:space="preserve">
<path fill="#26323A" d="M112.976,15.494c0,0,25.746,0.377,37.945,23.627c37.947,72.312,40.811,108.826,12.173,129.59
	c-23.702,17.184-105.964,0-105.964,0s-16.466-14.832-16.466-38.662c0-25.775,20.047-81.619,30.903-95.707
	C79.237,24.388,96.438,17.944,112.976,15.494z"/>
<path fill="#FDFDFE" stroke="#B18A6F" stroke-width="5" stroke-linejoin="round" stroke-miterlimit="10" d="M72.901,103.399
	c0,0-10.965-4.813-2.096,14.775c1.723,5.51,3.395,10.697,3.91,5.789c-0.288,2.727,1.273,9.271,6.968,16.633
	c5.947,7.686,21.037,18.951,26.607,20.664c3.358,1.035,5.166,1.293,10.849-1.549c1.876-0.938,15.672-10.496,21.894-17.492
	c4.832-6.979,7.732-10.756,8.322-16.645c2.943,2.943,2.747-9.443,4.475-15.645c5.167-14.981,1.634-16.373-3.533-17.664
	c2.28-13.504-2.578-21.674-9.201-29.071c-22.012-15.44-26.721-17.445-55.797-2.417C63.904,71.835,72.901,103.399,72.901,103.399z"/>
<path fill="#495156" d="M154.144,89.597c0,0-71.955,1.79-78.756,1.79c-9.666,5.728,4.296-25.059,4.296-25.059l30.428-10.381
	l36.157,8.234L154.144,89.597z"/>
<polygon fill="#3C68B2" points="126.58,62.749 122.998,70.266 134.812,75.635 136.602,86.734 148.058,86.017 144.835,66.329 "/>
<g>
	<path fill="#3C68B2" stroke="#264E84" stroke-width="3" stroke-linejoin="round" stroke-miterlimit="10" d="M68.586,84.227
		c0,0-1.431-40.81,45.105-40.81c38.663,0,38.663,37.23,38.663,37.23S112.26,32.677,68.586,84.227z"/>
	<path fill="#3C68B2" stroke="#264E84" stroke-width="3" stroke-linejoin="round" stroke-miterlimit="10" d="M142.688,54.514
		c0,0,5.976,39.508,4.923,71.193c0.65,14.896-7.892,25.949-18.526,32.891c0,0-7.899,14.787-30.069,1.164
		c-14.857-9.131-42.241,51.01,33.292,34.365c43.548-17.963,29.846-78.83,29.266-83.32C156.649,72.771,142.688,54.514,142.688,54.514
		z"/>
	<path fill="#3C68B2" stroke="#264E84" stroke-width="3" stroke-linejoin="round" stroke-miterlimit="10" d="M76.819,59.884
		c0,0-20.226,24.969-10.919,94.417c1.253,10.83,2.864,17.721,3.758,27.656c25.776,4.293,34.19,11.006,34.19,11.006
		s17.183-21.656-1.613-32.129c-9.485-6.354-11.365-8.592-24.521-24.969C74.851,120.115,76.819,59.884,76.819,59.884z"/>
</g>
<path fill="#26323A" d="M113.467,164.49c-15.66-4.818-27.876-20.928-38.08-33.949c-2.014,20.002,34.584,43.182,34.584,43.182
	S113.839,166.678,113.467,164.49z"/>
<path fill="#26323A" d="M108.902,164.684c18.302-4.564,31.324-21.256,40.318-34.008c-5.234,31.545-39.065,41.928-39.065,41.928
	S108.546,166.742,108.902,164.684z"/>
<path fill="#26323A" d="M41.378,139.357c0,0,67.3,60.498,140.687-1.791c0,0-11.814,63.721-70.521,66.227
	C59.326,206.021,41.021,140.072,41.378,139.357z"/>
<path fill="#26323A" d="M137.318,70.266L76.103,91.745l0.716,13.604c0,0,9.307,21.12,24.702,3.938c0,0,3.222-6.445,2.146-7.877
	c2.866-1.432,6.804-6.802,6.804-6.802l-0.358-3.221l32.218-18.258L137.318,70.266z"/>
<polygon fill="#3C68B2" points="97.9,93.442 103.059,99.714 107.896,92.951 105.33,87.462 "/>
<ellipse fill="#2C3C44" cx="89.885" cy="104.274" rx="10.918" ry="9.308"/>
<path fill="#BCBCBC" d="M59.266,81.533c-8.489,14.943-3.086,43.65-3.086,43.65s-0.839-7.664,11.69-24.132
	c-8.233,7.16-5.404,17.776,0,31.146c0,0,16.468-25.06,30.429-35.083c4.48-2.643,24.547-27.47,20.011-36.03
	C107.889,41.422,74.702,54.792,59.266,81.533z"/>
<path fill="#9B9A9A" d="M126.312,108.865l2.253-0.027v3.352c0,0,2.696,4.531,9.375,1.152c-4.558,4.4-9.375,1.363-9.375,1.363v3.352
	h-2.174V114.6c0,0-1.414,1.965-4.087,0.078c1.338,0,4.087-1.178,4.087-2.436L126.312,108.865z"/>
<path fill="#BCBCBC" d="M147.866,116.949c0,0-10.268,21.744-10.268,24.238c0,2.496,2.2,14.971,2.2,14.971l6.6-0.713
	C146.398,155.445,151.902,123.008,147.866,116.949z"/>
<path fill="#BCBCBC" d="M137.004,144.234c0,0-10.773,7.291-12.605,13.707c-2.295,4.684-0.55,12.201-0.55,12.201
	s8.055-2.283,12.217,0.939c0.671-12.082,2.953-14.633,2.953-14.633L137.004,144.234z"/>
<path fill="#BCBCBC" d="M136.87,171.619c0,0-0.241-13.496,3.356-14.498c2.61-0.729,5.639-0.402,5.639-0.402
	S147.883,169.371,136.87,171.619z"/>
<path fill="#BCBCBC" d="M136.133,172.557c0,0-6.108,10.607-13.626,9.4c-2.199-2.854-1.775-6.906-1.775-6.906l2.715-4.371
	C123.446,170.68,133.246,168.129,136.133,172.557z"/>
<path fill="#BCBCBC" d="M121.029,163.699c0,0-10.929,6.363-8.728,10.105c3.225,3.855,7.118,1.572,7.118,1.572l3.332-5.314
	C122.752,170.062,123.226,164.41,121.029,163.699z"/>
<path fill="#BCBCBC" d="M102.951,180.793c0,0-25.853,0.498-33.553,9.051c-7.701,8.555-10.451,10.695-10.451,10.695
	s11-36.359,24.202-35.824c13.201,0.535,19.252,8.02,19.252,8.02L102.951,180.793z"/>
<path fill="#BCBCBC" d="M121.97,182.492c0,0-14.498,3.895-18.525-0.805c-0.403-3.088,9.263-6.443,9.263-6.443l0,0
	c0,0,4.161,2.818,7.115,0.402C119.42,177.93,121.568,182.225,121.97,182.492z"/>
<path fill="#BCBCBC" d="M111.498,171.887c0,0-6.711-1.744-9.127,0.941c0.133,2.684,0.403,7.875,0.403,7.875s2.952-3.85,9.306-5.729
	C111.319,174.035,111.453,172.648,111.498,171.887z"/>
</svg>
