<?xml version="1.0" encoding="utf-8"?>
<!-- Generator: Adobe Illustrator 16.0.0, SVG Export Plug-In . SVG Version: 6.00 Build 0)  -->
<!DOCTYPE svg PUBLIC "-//W3C//DTD SVG 1.1//EN" "http://www.w3.org/Graphics/SVG/1.1/DTD/svg11.dtd">
<svg version="1.1" id="Layer_1" xmlns="http://www.w3.org/2000/svg" xmlns:xlink="http://www.w3.org/1999/xlink" x="0px" y="0px"
	 width="216px" height="216px" viewBox="0 0 216 216" enable-background="new 0 0 216 216" xml:space="preserve">
<g>
	<polygon fill="#DED0CE" points="101.598,160.792 95.359,169.11 90.16,166.511 76.644,170.15 72.484,176.389 45.451,183.667 
		62.607,172.229 	"/>
	<polygon fill="#FEF0EC" points="15.298,147.103 14.431,143.81 39.385,121.975 50.823,117.815 61.221,123.015 72.658,155.247 
		85.135,152.127 85.654,148.489 76.817,117.989 70.059,112.444 76.297,112.097 87.214,118.336 101.251,159.926 65.033,174.656 
		48.398,129.946 40.425,125.613 	"/>
	<polygon fill="#3A3F32" points="16.338,145.196 40.772,125.96 48.57,130.12 65.206,174.31 45.451,183.667 38,174.31 28.815,174.31 
		29.335,179.508 23.096,176.389 14.258,150.915 	"/>
	<polygon fill="#5E5F5F" points="45.624,119.376 52.209,113.483 63.646,118.683 74.564,152.474 86.001,148.835 85.482,152.474 
		73.005,155.594 61.047,122.321 50.65,117.643 	"/>
	<polygon fill="#787878" points="66.246,109.324 76.644,118.163 86.001,148.835 74.564,152.474 63.646,118.683 52.209,113.483 	"/>
	<path fill="#A1DCEA" d="M83.681,144.112c1.013,2.695-0.449,4.428-2.733,5.287l0,0c-2.285,0.858-4.526,0.518-5.539-2.176
		l-7.769-20.66c-1.013-2.693,0.45-4.426,2.733-5.285l0,0c2.285-0.859,4.527-0.52,5.539,2.174L83.681,144.112z"/>
	<path fill="#787878" d="M28.295,173.788h9.358l7.798,9.879c0,0-10.917,4.679-15.076-2.6
		C26.215,173.788,28.295,173.788,28.295,173.788z"/>
	<path fill="#898989" d="M76.644,170.15l13.517-3.64l5.199,2.6c0,0-1.561,4.332-5.025,5.719c-3.466,1.387-12.478,3.466-12.478,3.466
		s-5.199-0.347-5.372-1.906C72.312,174.829,76.644,170.15,76.644,170.15z"/>
	<path fill="#A9A8A8" d="M130.535,136.705c0,0-2.078,2.079-2.425-6.933c-0.347-9.01-0.12-30.104,3.812-30.498
		c3.467-0.348,3.812,3.119,3.812,3.119s-1.385-14.904,1.041-16.291c2.427-1.386,4.852-3.118,6.932,5.546
		c0.346-7.971,2.08-11.785,6.932-10.745c3.121,0.692,5.891,9.705,5.891,9.705l-1.039-6.931c0,0,1.039-2.427,2.079-2.427
		s6.933-7.972,19.409,32.925c5.199,10.398,5.893,15.943,5.893,15.943l-0.348,5.198l-50.947,6.586L130.535,136.705z"/>
	<path fill="#898989" d="M127.071,143.983c0,0,3.812,31.886,20.795,49.215c26.341,0.694,34.657-1.385,34.657-1.385
		s3.812-9.358,4.506-12.824c2.773-2.773,1.732-39.164-0.693-44.709c-1.385-1.734-4.027-5.33-4.027-5.33s-0.131,4.291-3.943,4.636
		c-3.812,0.347-4.16-4.505-6.586-5.198s-4.852,0-4.852,0s-2.771,2.078-5.197,1.731c-2.427-0.347-5.893-2.078-5.893-2.078
		l-7.971,0.691c0,0,0.822,2.081-0.91,3.467s-2.99,0.649-2.99,0.649l-1.299-2.383l-6.498,2.514l-0.781,5.806l-4.506,1.386
		L127.071,143.983z"/>
	<path fill="#D3D3D3" d="M130.189,130.813c0,0,2.773-3.465,5.546-0.693c2.772,2.773-0.347,8.665-0.347,8.665l-4.506,1.386
		L130.189,130.813z"/>
	<path fill="#D3D3D3" d="M141.281,122.842c0,0,4.505-2.425,6.585-0.692c2.079,1.732,1.386,10.396-0.347,11.091
		c-1.733,0.692-4.16,0.692-4.16,0.692S141.281,125.269,141.281,122.842z"/>
	<path fill="#D3D3D3" d="M156.531,119.03l5.197-0.693c0,0,5.893,7.278,3.119,11.783c-5.545,1.041-3.465,0.693-3.465,0.693
		l-5.545-3.119L156.531,119.03z"/>
	<path fill="#D3D3D3" d="M171.086,119.03h4.854c0,0,10.051,9.357,5.893,12.477c-1.732,3.811-1.908,3.598-4.16,3.119
		c-2.252-0.477-7.971-6.586-7.971-6.586L171.086,119.03z"/>
	<polygon fill="#6B6B6B" points="137.988,135.838 141.628,153.515 135.91,141.037 	"/>
	<polygon fill="#6B6B6B" points="148.906,135.318 150.466,130.12 154.105,150.395 	"/>
	<polygon fill="#6B6B6B" points="160.344,133.238 156.185,130.64 157.744,146.756 	"/>
	<polygon fill="#6B6B6B" points="168.662,131.159 173.34,135.318 170.742,145.716 	"/>
	<path fill="#6B6B6B" d="M129.151,142.597c0,0,18.716,28.594,20.795,40.03c9.878,5.719,7.798,8.838,14.037,9.358
		c6.237,0.52-13.518,4.158-18.196-0.521S122.393,144.156,129.151,142.597z"/>
	<g>
		<path fill="#898989" d="M137.799,134.089c0,0,0.086,0.105,0.279,0.265c0.098,0.078,0.223,0.174,0.389,0.239
			c0.158,0.059,0.389,0.109,0.559-0.049c0.329-0.305,0.413-0.912,0.453-1.545c0.024-0.648-0.005-1.382-0.071-2.182
			c-0.132-1.591-0.484-3.455-0.729-5.451c-0.267-1.997-0.552-4.128-0.836-6.258c-0.265-2.133-0.529-4.266-0.777-6.266
			c-0.258-1.997-0.499-3.861-0.705-5.459c-0.374-3.203-0.623-5.338-0.623-5.338s0.36,2.12,0.901,5.301
			c0.251,1.594,0.544,3.453,0.856,5.445c0.27,1.996,0.557,4.127,0.844,6.258c0.262,2.133,0.523,4.266,0.77,6.266
			c0.116,1.001,0.229,1.969,0.335,2.886c0.103,0.915,0.213,1.787,0.245,2.599c0.048,0.809,0.033,1.555-0.03,2.214
			c-0.081,0.644-0.188,1.267-0.582,1.597c-0.211,0.172-0.468,0.097-0.628,0.027c-0.17-0.079-0.289-0.184-0.383-0.268
			C137.879,134.198,137.799,134.089,137.799,134.089z"/>
	</g>
	<g>
		<path fill="#898989" d="M149.665,129.718c0,0,0.122,0.107,0.386,0.254c0.245,0.125,0.724,0.385,1.209,0.102
			c0.438-0.34,0.552-1.072,0.564-1.832c0.021-0.775-0.104-1.66-0.238-2.601c-0.396-1.894-0.861-4.104-1.357-6.472
			c-0.457-2.376-1.106-4.87-1.67-7.386c-1.137-5.03-2.273-10.06-3.126-13.833c-0.827-3.781-1.378-6.302-1.378-6.302
			s0.167,0.623,0.46,1.713c0.286,1.092,0.726,2.645,1.191,4.523c0.47,1.877,1.019,4.067,1.606,6.414
			c0.582,2.347,1.143,4.87,1.734,7.383c0.543,2.524,1.172,5.032,1.607,7.41c0.441,2.378,0.854,4.597,1.208,6.499
			c0.12,0.975,0.201,1.859,0.142,2.658c-0.053,0.773-0.194,1.536-0.699,1.895c-0.559,0.285-1.022-0.021-1.265-0.153
			C149.782,129.83,149.665,129.718,149.665,129.718z"/>
	</g>
	<g>
		<path fill="#898989" d="M166.182,129.593c0,0,0.135,0.105,0.421,0.242c0.257,0.113,0.806,0.355,1.253-0.037
			c0.4-0.421,0.447-1.193,0.389-1.993c-0.059-0.812-0.217-1.733-0.463-2.706c-0.268-0.98-0.557-2.043-0.861-3.166
			c-0.345-1.109-0.708-2.279-1.084-3.49c-0.74-2.422-1.598-4.995-2.434-7.569c-1.683-5.149-3.365-10.299-4.627-14.161
			c-1.242-3.87-2.07-6.45-2.07-6.45s0.961,2.534,2.336,6.359c1.385,3.822,3.131,8.953,4.836,14.097
			c0.815,2.586,1.65,5.161,2.374,7.604c0.354,1.222,0.696,2.403,1.021,3.523c0.277,1.131,0.541,2.2,0.781,3.188
			c0.232,1,0.35,1.93,0.371,2.766c0.02,0.816-0.051,1.614-0.514,2.062c-0.236,0.204-0.537,0.237-0.764,0.192
			c-0.23-0.045-0.413-0.123-0.554-0.197C166.311,129.704,166.182,129.593,166.182,129.593z"/>
	</g>
	
		<line fill="#6B6B6B" stroke="#898989" stroke-width="0.5" stroke-miterlimit="10" x1="136.689" y1="108.415" x2="128.501" y2="109.585"/>
	
		<line fill="#6B6B6B" stroke="#898989" stroke-width="0.5" stroke-miterlimit="10" x1="137.988" y1="121.281" x2="128.111" y2="122.451"/>
	
		<line fill="#6B6B6B" stroke="#898989" stroke-width="0.5" stroke-miterlimit="10" x1="148.244" y1="110.126" x2="137.185" y2="112.643"/>
	
		<line fill="#6B6B6B" stroke="#898989" stroke-width="0.5" stroke-miterlimit="10" x1="144.859" y1="95.125" x2="135.496" y2="97.437"/>
	
		<line fill="#6B6B6B" stroke="#898989" stroke-width="0.5" stroke-miterlimit="10" x1="157.421" y1="93.477" x2="145.178" y2="96.137"/>
	
		<line fill="#6B6B6B" stroke="#898989" stroke-width="0.5" stroke-miterlimit="10" x1="162.239" y1="106.406" x2="148.362" y2="109.264"/>
	
		<line fill="#6B6B6B" stroke="#898989" stroke-width="0.5" stroke-miterlimit="10" x1="170.041" y1="94.35" x2="158.869" y2="96.88"/>
	
		<line fill="#6B6B6B" stroke="#898989" stroke-width="0.5" stroke-miterlimit="10" x1="174.33" y1="106.177" x2="163.158" y2="108.708"/>
	<circle fill="#D3D3D3" cx="131.751" cy="121.802" r="2.534"/>
	<circle fill="#D3D3D3" cx="141.108" cy="111.403" r="2.534"/>
	<circle fill="#D3D3D3" cx="153.585" cy="107.765" r="2.534"/>
	<circle fill="#D3D3D3" cx="168.142" cy="107.245" r="2.534"/>
	<circle fill="#D3D3D3" cx="165.022" cy="95.288" r="2.534"/>
	<circle fill="#D3D3D3" cx="150.986" cy="94.248" r="2.534"/>
	<circle fill="#D3D3D3" cx="140.068" cy="96.327" r="2.534"/>
	<circle fill="#D3D3D3" cx="132.79" cy="108.804" r="2.534"/>
</g>
<g>
	<path fill="#F7EFCD" d="M122.027,49.714c0,0,23.174-9.293,36.496,21.929c-7.845,2.721-5.075,1.003-5.075,1.003l-11.384,0.742
		l-0.143,1.499c0,0-14.76-4.611-18.59-19.158c1.648-1.98,0.338-2.184,0.338-2.184L122.027,49.714z"/>
	<path fill="#F6EF7D" d="M125.654,22.816c0,0-10.08,6.758-10.002,10.884c0.076,4.126,0.935,5.512,0.935,5.512
		s2.524,8.53,5.372,10.939c1.267,3.953,1.062,0.074,2.748,0.157c1.688,0.082,2.042,1.837,2.042,1.837s0.466-2.432,1.655-2.606
		s2.042,1.836,2.042,1.836l1.083-1.799l0.98,1.762l2.023-2.102l0.423,1.318l2.003-0.227c0,0,0.986,1.137,1.28,2.703
		s0.602-3.306,1.394-1.484c0.79,1.822,0.069,4.751,0.069,4.751s0.714-2.304,1.196-0.799c0.482,1.506,1.049,6.513,1.049,6.513
		l0.956-1.551l2.026,3.086l1.693-0.543c0,0,2.162,2.213,1.84,3.147c-0.325,0.934,2.076-1.289,2.076-1.289l4.625,5.367
		c0,0-0.195,0.686-1.316,0.423c1.807,0.458,2.108,1.399,2.108,1.399s12.13-0.356,13.153-2.346c0.867,0.76,0.051-4.375,0.051-4.375
		l5.021-1.817c0,0,24.277,3.223,27.584,3.825c-2.352-2.154-18.979-7.411-18.979-7.411l5.301,1c0,0-7.07-4.583-11.574-4.386
		c-4.504,0.197-5.273-8.688-11.004-10.381c-5.73-1.691-12.395-3.708-13.818-4.912c-1.424-1.205-9.323-4.485-12.14-4.206
		c-1.845-2.522-2.742-5.97-5.288-7.438c-0.912-2.198-1.922-6.648-1.922-6.648s-0.799-1.197-0.934-0.323
		c-0.159-2.439-2.412-7.529-2.412-7.529L125.654,22.816z"/>
	<path fill="#DBBE43" d="M116.045,37.518c0,0,1.972-2.915,7.176,1.021c1.319,4.766-2.332,6.973-2.332,6.973l-3.237-1.038
		l-1.829,1.416C115.822,45.89,113.44,41.05,116.045,37.518z"/>
	<path fill="#7C5E3E" d="M154.639,72.473c0,0-2.868,4.654-4.125,5.265c-1.258,0.61-5.647,1.809-5.647,1.809l-3.417,3.585
		l0.582,3.757l1.204-1.423l-0.287-2.191l1.769-1.605l-0.465,2.433l1.394,3.705l1.069-0.551l-1.025-3.199l0.902-2.365l1.95-1.04
		l-0.843,2.552l1.16,2.327l0.346-2.809l0.512-0.994l1.566-0.294l1.114,0.888l-0.089,2.311l0.941-0.301l0.037,2.063
		c0,0-0.64,1.242,0.302,0.941c0.94-0.302,1.332-1.672,1.332-1.672s2.054-4.602,3.433-4.835c1.377-0.233,1.377-0.233,1.377-0.233
		l-2.302,4.473l-0.971,2.801l1.505-0.482l4.186-5.076c0,0,2.645,3.718,2.261,4.464c1.317-0.422,1.104-3.675,0.577-6.62
		c0.842-2.552,3.867-9.956,3.867-9.956l-0.617-0.632l-3.026,2.215l-3.273,7.275c0,0-5.692,0.371-7.515,1.162
		c-0.858-1.385-0.858-1.385-0.858-1.385l3.394-6.898L154.639,72.473z"/>
</g>
</svg>
