<?xml version="1.0" encoding="utf-8"?>
<!-- Generator: Adobe Illustrator 16.0.0, SVG Export Plug-In . SVG Version: 6.00 Build 0)  -->
<!DOCTYPE svg PUBLIC "-//W3C//DTD SVG 1.1//EN" "http://www.w3.org/Graphics/SVG/1.1/DTD/svg11.dtd">
<svg version="1.1" id="Layer_1" xmlns="http://www.w3.org/2000/svg" xmlns:xlink="http://www.w3.org/1999/xlink" x="0px" y="0px"
	 width="216px" height="216px" viewBox="0 0 216 216" enable-background="new 0 0 216 216" xml:space="preserve">
<path fill="#772619" d="M101.53,31.069c0,0-8.856-5.933-21.665,3.668c-7.734,5.798-11.962,21.91-11.733,31.264
	C74.541,56.01,101.53,31.069,101.53,31.069z"/>
<path fill="#772619" d="M101.006,31.17c0,0-3.616-6.227-14.237-4.199c-6.414,1.225-13.759,9.75-16.394,15.496
	C77.228,38.303,101.006,31.17,101.006,31.17z"/>
<path fill="#772619" d="M104.451,26.145c0,0,3.867-6.073,14.396-3.611c6.358,1.487,13.348,10.306,15.744,16.155
	C127.916,34.247,104.451,26.145,104.451,26.145z"/>
<path fill="#772619" d="M111.926,24.478c0,0-3.868-6.073-14.397-3.611c-6.359,1.487-13.347,10.306-15.744,16.155
	C88.46,32.58,111.926,24.478,111.926,24.478z"/>
<path fill="#772619" d="M147.333,83c0,0,6-57.25-37.25-57.25C61.583,25.75,70.667,81,70.667,81l36.917-33.5L147.333,83z"/>
<path fill="none" stroke="#ECBF9D" stroke-width="5" stroke-linecap="round" stroke-linejoin="round" stroke-miterlimit="10" d="
	M74.198,104.187c0,0-9.833,0.418-2.16,16.276c1.489,4.459,5.512,5.055,5.958,1.08c-0.248,2.207,0.397,5.928,3.799,12.758
	c4.034,8.098,18.301,19.895,23.12,21.281c2.906,0.838,4.47,1.047,9.386-1.254c1.623-0.76,15.298-10.736,19.565-18.562
	c3.153-5.787,4.02-9.221,4.398-13.176c0.518,3.764,5.056,1.256,6.552-3.764c4.47-12.128,2.457-13.176-2.013-14.22
	c-0.96-10.74-4.408-27.862-9.608-32.204c-18.661-15.579-28.142-17.683-48.271-2.719C68.61,81.812,74.198,104.187,74.198,104.187z"/>
<path fill="#842D1B" d="M107.667,75.333c0,0,5.667-4.667,5.667-8.333c1,3.667,2.667,6.667,2.667,6.667l6.333-5.333L126.666,74
	c0,0,5,5.333,9.667,3.333s9.001-14-4.333-23s-20-9.333-23.667-7C104.667,49.667,107.667,75.333,107.667,75.333z"/>
<path fill="#842D1B" d="M108.103,75.333c0,0-5.667-4.667-5.667-8.333c-1,3.667-2.666,6.667-2.666,6.667l-6.334-5.333L89.104,74
	c0,0-3.771,5.667-8.438,3.667c-4.668-2-10.23-14.333,3.104-23.333s20-9.333,23.666-7C111.104,49.667,108.103,75.333,108.103,75.333z
	"/>
<path fill="#842D1B" d="M77.333,66.333c0,0,3-24.333,29.333-25S138.334,62,138,64.333"/>
<path fill="#842D1B" d="M81.667,76.333c0,0-2.205,28.333-1.764,39S80.785,199.333,78.14,203c-2.645,3.667-6.172,5.001-10.14,4.334
	c7.054-4.334,4.667-121,4.667-121"/>
<path fill="#842D1B" d="M76.667,70c-4.333,0.333-8.667,28-7.333,33.667c2.667-3.333,9,4,9,4s1.667-34.333,4.333-35
	S76.667,70,76.667,70z"/>
<path fill="#842D1B" d="M134.51,76.333c0,0,2.204,28.333,1.764,39c-0.441,10.667-0.883,83.999,1.763,87.666s6.173,5.001,10.14,4.334
	c-7.054-4.334-4.666-121-4.666-121"/>
<path fill="#842D1B" d="M139.51,70c4.333,0.333,8.666,28,7.333,33.667c-2.667-3.333-9,4-9,4s-1.667-34.333-4.333-35
	C130.843,72,139.51,70,139.51,70z"/>
<g>
	<path fill="#848484" d="M75.332,69.501c0,0-3.561,4.097-3,5.667c0.833,2.333,1.161,4.177,2,4.667c2,1.167,5.667,1.333,6.667,1.333
		s2.667-3,2.667-3l-4.333-4.667L75.332,69.501z"/>
	<path fill="#FCB855" d="M74.832,73.167c0,0,2.5,0.5,3.333,1.5s1.833,2.167,1.333,3s-3,0.667-4.167-0.5S73.499,73.667,74.832,73.167
		z"/>
</g>
<g>
	<path fill="#848484" d="M141.105,69.501c0,0,3.561,4.097,3,5.667c-0.834,2.333-1.161,4.177-2,4.667
		c-2,1.167-5.667,1.333-6.667,1.333s-2.667-3-2.667-3l4.334-4.667L141.105,69.501z"/>
	<path fill="#FCB855" d="M141.605,73.167c0,0-2.5,0.5-3.334,1.5s-1.834,2.167-1.334,3s3.001,0.667,4.168-0.5
		C142.271,76.001,142.938,73.667,141.605,73.167z"/>
</g>
<path fill="#FCB855" d="M136,58c0,0-18.834-14.333-27.333-14.333c-8.5,0-27.833,13.667-27.833,13.667s20-17.167,28.167-17.5
	S134.167,55,136,58z"/>
<path fill="#A09F9F" d="M80,57.5c0,0,23.417-15.75,28.75-15.75c5.334,0,27.25,16.083,27.25,16.083L134.75,54
	c0,0-15.125-18.25-26.25-22.834c-9.625,3.709-26.125,21.209-26.125,21.209L80,57.5z"/>
<path fill="#772619" d="M115.75,29.417c0,0,8.249-6.751,21.916,1.582c8.253,5.032,12.001,23.668,12.667,33.001
	C142.999,54.667,115.75,29.417,115.75,29.417z"/>
</svg>
