<?xml version="1.0" encoding="utf-8"?>
<!-- Generator: Adobe Illustrator 16.0.0, SVG Export Plug-In . SVG Version: 6.00 Build 0)  -->
<!DOCTYPE svg PUBLIC "-//W3C//DTD SVG 1.1//EN" "http://www.w3.org/Graphics/SVG/1.1/DTD/svg11.dtd">
<svg version="1.1" id="Layer_1" xmlns="http://www.w3.org/2000/svg" xmlns:xlink="http://www.w3.org/1999/xlink" x="0px" y="0px"
	 width="216px" height="216px" viewBox="0 0 216 216" enable-background="new 0 0 216 216" xml:space="preserve">
<path fill="#4E2816" d="M108.952,20.478c0,0,62.408-2.11,63.844,81.156c1.435,83.264,27.617,75.491,27.617,75.491
	s-17.934,7.531-39.812-6.814c8.967,11.477,12.554,13.27,26.9,16.857c-20.635,7.42-48.889,6.455-80.451,7.174
	C80.467,145.957,108.952,20.478,108.952,20.478z"/>
<path fill="#4E2816" d="M109.339,20.478c0,0-62.407-2.11-63.842,81.156c-1.435,83.264-27.618,75.491-27.618,75.491
	s17.933,7.531,39.812-6.814c-8.967,11.477-12.553,13.27-26.9,16.857c20.635,7.42,48.89,6.455,80.452,7.174
	C137.823,145.957,109.339,20.478,109.339,20.478z"/>
<path fill="#D63980" d="M56.698,77.037l-8.292-30.263c0,0,2.487-3.315,3.732-0.829c1.243,2.488,16.167,28.604,16.167,28.604
	L56.698,77.037z"/>
<path fill="#D63980" d="M159.094,77.037l8.291-30.263c0,0-2.488-3.315-3.73-0.829c-1.244,2.488-16.169,28.604-16.169,28.604
	L159.094,77.037z"/>
<path fill="#FFFFFF" stroke="#ECBF9D" stroke-width="5" stroke-linecap="round" stroke-linejoin="round" stroke-miterlimit="10" d="
	M67.201,87.827c0,0-12.16,0.552-2.672,21.511c1.844,5.893,4.053,6.943,4.605,1.691c-0.307,2.918,1.369,8.717,7.463,16.594
	c6.361,8.223,20.847,15.291,26.807,17.125c3.593,1.105,9.397,1.934,15.477-1.105c2.009-1.004,15.457-6.6,22.11-14.084
	c5.703-6.416,6.024-11.641,6.494-16.871c0.64,4.975,5.201,1.119,7.048-5.516c5.528-16.029,3.042-17.41-2.486-18.792
	c-1.188-14.196-5.453-36.824-11.884-42.562c-23.077-20.59-34.804-23.37-59.697-3.592C60.291,58.255,67.201,87.827,67.201,87.827z"/>
<path fill="#4E2816" d="M152.461,78.281c0,0,3.17-53.646-43.261-53.23c-46.43,0.414-45.87,55.718-45.455,58.619
	c0.415,2.902,4.561,0.415,4.561,0.415s9.949-0.415,11.192-8.291c2.487,5.39-1.451,7.876-1.243,7.876
	c4.767,0.415,16.436-8.28,16.167-12.85c0.414,7.046-3.316,11.193-3.316,11.193s17.756,1.865,25.219-9.95
	c2.072-4.56-0.208,7.462-6.426,9.95c-6.218,2.487,13.472-1.452,19.484-12.437c2.279-5.389,1.45,5.182,0,6.633
	c1.658-0.622,12.437-6.633,12.437-11.608c3.731,4.146,7.323,17.826,7.323,17.826L152.461,78.281z"/>
<g>
	<path fill="#565861" d="M70.277,70.971l-8.843-0.451c0,0-8.292,11.26-8.292,15.763c0,4.503,0.552,10.808,0.552,10.808
		s9.397,19.366,12.714,20.715c4.422,0.451,6.633-0.449,6.633-0.449L70.277,70.971z"/>
	<path fill="#565861" d="M147.523,70.971l8.843-0.451c0,0,8.292,11.26,8.292,15.763c0,4.503-0.554,10.808-0.554,10.808
		s-9.396,19.366-12.713,20.715c-4.422,0.451-6.633-0.449-6.633-0.449L147.523,70.971z"/>
	<path fill="#565861" d="M71.207,90.303c0,0,1.244,2.073,2.902,2.073c0.415,7.463-0.829,28.188-0.829,28.188l-6.873-2.758
		L71.207,90.303z"/>
	<path fill="#565861" d="M146.502,90.303c0,0-1.243,2.073-2.903,2.073c-0.413,7.463,0.831,28.188,0.831,28.188l6.87-2.758
		L146.502,90.303z"/>
	<path fill="#565861" d="M62.086,72.458l6.218-30.263L82.4,31.831l26.263-0.684l0.268,6.488H83.229l-8.706,9.12l-3.316,6.219
		c0,0-5.389,8.29-4.974,11.192c0.415,2.902-0.415,6.219-0.415,6.219L62.086,72.458z"/>
	<polyline fill="#565861" points="152.461,71.233 148.729,41.386 136.294,31.437 107.274,31.021 107.688,37.655 134.222,37.655 
		142.927,46.774 145.413,51.75 	"/>
</g>
<polygon fill="#D63980" points="76.857,105.227 76.857,113.07 90.157,109.318 "/>
<polygon fill="#D63980" points="78.903,121.254 82.995,126.369 91.521,115.457 "/>
<polygon fill="#D63980" points="141.267,105.227 141.267,113.07 127.968,109.318 "/>
<polygon fill="#D63980" points="139.222,121.254 135.13,126.369 126.604,115.457 "/>
<polygon fill="#D63980" points="71.207,42.215 73.695,44.702 83.23,37.655 93.179,37.655 98.568,34.338 81.157,34.338 "/>
<polygon fill="#D63980" points="146.657,42.215 144.168,44.702 134.634,37.655 124.685,37.655 119.296,34.338 136.708,34.338 "/>
</svg>
