<?xml version="1.0" encoding="utf-8"?>
<!-- Generator: Adobe Illustrator 16.0.0, SVG Export Plug-In . SVG Version: 6.00 Build 0)  -->
<!DOCTYPE svg PUBLIC "-//W3C//DTD SVG 1.1//EN" "http://www.w3.org/Graphics/SVG/1.1/DTD/svg11.dtd">
<svg version="1.1" id="Layer_1" xmlns="http://www.w3.org/2000/svg" xmlns:xlink="http://www.w3.org/1999/xlink" x="0px" y="0px"
	 width="216px" height="216px" viewBox="0 0 216 216" enable-background="new 0 0 216 216" xml:space="preserve">
<path fill="#866651" stroke="#866651" stroke-width="5" stroke-linejoin="round" stroke-miterlimit="10" d="M55.391,94.02
	c0,0-14.565,2.019-5.653,21.974c2.303,6.674,8.223,19.518,8.913,13.572c-0.384,3.303,4.23,23.412,12.153,31.928
	c13.369,14.369,16.858,22.67,24.307,24.746c4.491,1.252,24.905,3.35,31.598-1.596c3.242-2.395,9.115-9.979,21.876-23.15
	c7.022-7.248,7.952-28.365,8.539-34.283c0.799,5.631,5.111-3.779,7.422-11.289c6.908-18.148,3.799-19.712-3.109-21.276
	c-1.485-16.072-6.815-41.688-14.854-48.183c-28.843-23.311-43.497-26.458-74.611-4.068C46.753,60.542,55.391,94.02,55.391,94.02z"/>
<linearGradient id="SVGID_1_" gradientUnits="userSpaceOnUse" x1="56.0835" y1="127.7188" x2="158.6582" y2="127.7188">
	<stop  offset="0.1475" style="stop-color:#F4EFDD"/>
	<stop  offset="0.2512" style="stop-color:#F4EFDD;stop-opacity:0.7713"/>
	<stop  offset="0.3372" style="stop-color:#F4EFDD;stop-opacity:0.4092"/>
	<stop  offset="0.495" style="stop-color:#F4EFDD;stop-opacity:0"/>
	<stop  offset="0.6729" style="stop-color:#F4EFDD;stop-opacity:0.3582"/>
	<stop  offset="0.7491" style="stop-color:#F4EFDD;stop-opacity:0.7"/>
	<stop  offset="0.9163" style="stop-color:#F4EFDD"/>
</linearGradient>
<path fill="url(#SVGID_1_)" d="M56.083,134.355c0,0,36.021-20.556,50.389-20.256c14.368,0.301,52.186,19.059,52.186,19.059
	l-3.194,5.986c0,0-41.808-18.73-48.692-18.76c-10.684-0.045-47.894,20.955-47.894,20.955L56.083,134.355z"/>
<linearGradient id="SVGID_2_" gradientUnits="userSpaceOnUse" x1="53.8315" y1="113.5566" x2="88.7261" y2="113.5566">
	<stop  offset="0.3225" style="stop-color:#F4EFDD"/>
	<stop  offset="1" style="stop-color:#F4EFDD;stop-opacity:0"/>
</linearGradient>
<polygon fill="url(#SVGID_2_)" points="53.832,124.016 88.726,110.123 87.731,103.098 54.082,116.118 "/>
<linearGradient id="SVGID_3_" gradientUnits="userSpaceOnUse" x1="124.8291" y1="111.5557" x2="160.873" y2="111.5557">
	<stop  offset="0" style="stop-color:#F4EFDD;stop-opacity:0"/>
	<stop  offset="0.6226" style="stop-color:#F4EFDD"/>
</linearGradient>
<polygon fill="url(#SVGID_3_)" points="160.873,121.859 124.829,108.351 125.808,101.252 160.565,113.9 "/>
<linearGradient id="SVGID_4_" gradientUnits="userSpaceOnUse" x1="140.6895" y1="99.4526" x2="171.749" y2="99.4526">
	<stop  offset="0" style="stop-color:#F4EFDD;stop-opacity:0"/>
	<stop  offset="0.6226" style="stop-color:#F4EFDD"/>
</linearGradient>
<polygon fill="url(#SVGID_4_)" points="171.749,110.07 140.689,97.242 141.088,88.835 171.015,100.839 "/>
<linearGradient id="SVGID_5_" gradientUnits="userSpaceOnUse" x1="46.0659" y1="100.4956" x2="76.7129" y2="100.4956">
	<stop  offset="0.3225" style="stop-color:#F4EFDD"/>
	<stop  offset="1" style="stop-color:#F4EFDD;stop-opacity:0"/>
</linearGradient>
<polygon fill="url(#SVGID_5_)" points="46.37,110.09 76.662,97.781 76.713,90.901 46.066,100.924 "/>
<path fill="#AEADAE" d="M52.09,88.056c0,0,3.991,42.309,4.79,46.299c3.991,7.184,5.587,10.377,5.587,10.377l-0.397,9.18
	l-12.375-18.76c0,0-14.368-31.131-8.781-38.316C46.502,89.653,52.09,88.056,52.09,88.056z"/>
<path fill="#EE2D2E" d="M43.182,93.94l2.855-2.188c0,0,4.256,40.209,3.06,41.406c-0.72,0.721-2.594-5.189-2.594-5.189L43.182,93.94z
	"/>
<linearGradient id="SVGID_6_" gradientUnits="userSpaceOnUse" x1="134.0127" y1="172.0225" x2="123.834" y2="172.0225">
	<stop  offset="0.3225" style="stop-color:#F4EFDD"/>
	<stop  offset="1" style="stop-color:#F4EFDD;stop-opacity:0"/>
</linearGradient>
<path fill="url(#SVGID_6_)" d="M134.013,170.676c0,0-8.682-4.191-10.179-8.98c0.899,9.578,8.082,20.654,8.082,20.654
	L134.013,170.676z"/>
<path fill="#3D3D3D" d="M132.814,178.309l-0.113-6.436l8.98-9.58l3.891-8.68l5.688,4.791l3.107-6.738l1.48,2.246
	c0,0,1.361,8.08-25.429,31.279C128.624,181.9,132.814,178.309,132.814,178.309z"/>
<path fill="#AEADAE" d="M52.891,90.852l3.193-13.17l-0.799-3.193l-2.394,1.597l1.996-8.781h-3.592c0,0-3.593,19.557-2.395,22.75
	C50.097,93.247,52.891,90.852,52.891,90.852z"/>
<path fill="#AEADAE" d="M162.555,88.056c0,0-3.992,42.309-4.788,46.299c-3.992,7.184-3.797,12.172-3.797,12.172l1.146,10.229
	l9.834-21.604c0,0,14.368-31.131,8.78-38.316C168.144,89.653,162.555,88.056,162.555,88.056z"/>
<linearGradient id="SVGID_7_" gradientUnits="userSpaceOnUse" x1="94.4985" y1="172.0225" x2="84.3213" y2="172.0225">
	<stop  offset="0" style="stop-color:#F4EFDD;stop-opacity:0"/>
	<stop  offset="0.6226" style="stop-color:#F4EFDD"/>
</linearGradient>
<path fill="url(#SVGID_7_)" d="M84.321,170.676c0,0,8.681-4.191,10.177-8.98c-0.897,9.578-8.082,20.654-8.082,20.654L84.321,170.676
	z"/>
<path fill="#EE2D2E" d="M171.464,93.94l-2.855-2.188c0,0-4.257,40.209-3.061,41.406c0.721,0.721,2.596-5.189,2.596-5.189
	L171.464,93.94z"/>
<path fill="#AEADAE" d="M161.755,90.852l-3.192-13.17l0.797-3.193l2.396,1.597l-1.996-8.781h3.592c0,0,3.593,19.557,2.396,22.75
	C164.55,93.247,161.755,90.852,161.755,90.852z"/>
<path fill="#DCAF45" d="M54.886,67.304c0,0,15.566-40.212,51.137-42.071l0.075-1.609l-14.706,0.299l-14.954,7.958L57.679,49.342
	l-6.385,17.962H54.886z"/>
<path fill="#DCAF45" d="M159.859,67.404c0,0-12.576-41.709-53.836-42.134l0.05-1.67h17.362l14.87,8.381l18.76,17.461l6.386,17.962
	H159.859z"/>
<path fill="#3D3D3D" d="M85.968,180.104l-0.75-8.23l-8.979-9.58l-3.891-8.68l-5.389,4.041l-4.789-7.336l-0.1,3.594
	c0,0,0.699,6.586,26.143,31.73C90.009,182.35,85.968,180.104,85.968,180.104z"/>
<path fill="#EE2D2E" stroke="#3A3A3A" stroke-miterlimit="10" d="M76.34,71.524l-9.731,8.868c0,0-2.576-0.656-1.717-2.627
	c0.858-1.971,8.014-8.868,8.014-8.868S76.053,68.896,76.34,71.524z"/>
</svg>
