<?xml version="1.0" encoding="utf-8"?>
<!-- Generator: Adobe Illustrator 16.0.0, SVG Export Plug-In . SVG Version: 6.00 Build 0)  -->
<!DOCTYPE svg PUBLIC "-//W3C//DTD SVG 1.1//EN" "http://www.w3.org/Graphics/SVG/1.1/DTD/svg11.dtd">
<svg version="1.1" id="Layer_1" xmlns="http://www.w3.org/2000/svg" xmlns:xlink="http://www.w3.org/1999/xlink" x="0px" y="0px"
	 width="216px" height="216px" viewBox="0 0 216 216" enable-background="new 0 0 216 216" xml:space="preserve">
<path fill="#8C8C8C" d="M45.017,79.683L32.311,29.91l19.065,24.93l3.666-15.397c0,0,44.621-20.802,52.688-19.703
	c6.537,0.892,46.299,13.104,49.968,21.169l2.199,14.664l20.531-27.862l-9.288,52.801l-20.717-11.915l-10.448,7.149L105.33,44.4
	L74.349,72.539l-11.974-7.432L45.017,79.683z"/>
<radialGradient id="SVGID_1_" cx="111.1523" cy="127.2803" r="54.7848" gradientTransform="matrix(1.006 0 0 1.0569 -1.7344 -4.5166)" gradientUnits="userSpaceOnUse">
	<stop  offset="0.5543" style="stop-color:#94C944"/>
	<stop  offset="0.9988" style="stop-color:#559D42"/>
</radialGradient>
<polygon fill="url(#SVGID_1_)" points="62.098,80.436 48.842,95.571 105.677,180.662 171.32,99.421 152.004,79.354 "/>
<path fill="#CCCCCC" d="M45.017,79.683c0,0,12.135-15.586,18.35-15.398c6.216,0.188,11.293,6.6,11.293,6.6l32.466-38.864
	l32.469,40.331c0,0,2.92-8.254,10.586-8.067c7.668,0.188,20.957,15.31,20.957,15.31l4.4,29.33l-11.733-8.433l-55.973,41.518
	L53.487,98.015l-11.293,12.464L45.017,79.683z"/>
<polygon fill="#CCCCCC" points="56.037,106.265 45.86,119.463 51.676,137.794 57.492,139.994 69.123,167.857 108.381,198.654 
	147.64,169.323 156.362,140.728 163.634,139.994 172.706,117.378 163.188,109.472 146.186,121.663 144.731,129.728 109.836,153.193 
	75.667,130.463 73.485,123.129 "/>
<polygon fill="#CCCCCC" points="57.492,139.994 65.183,143.389 72.883,165.938 108.354,188.483 140.251,167.312 147.675,144.214 
	156.362,140.728 147.64,169.323 108.381,198.654 69.123,167.857 "/>
</svg>
