<?xml version="1.0" encoding="utf-8"?>
<!-- Generator: Adobe Illustrator 16.0.0, SVG Export Plug-In . SVG Version: 6.00 Build 0)  -->
<!DOCTYPE svg PUBLIC "-//W3C//DTD SVG 1.1//EN" "http://www.w3.org/Graphics/SVG/1.1/DTD/svg11.dtd">
<svg version="1.1" id="Layer_1" xmlns="http://www.w3.org/2000/svg" xmlns:xlink="http://www.w3.org/1999/xlink" x="0px" y="0px"
	 width="216px" height="216px" viewBox="0 0 216 216" enable-background="new 0 0 216 216" xml:space="preserve">
<path fill="none" stroke="#D6AD72" stroke-width="5" stroke-linejoin="round" stroke-miterlimit="10" d="M64.1,123.378
	c0,0-13.192,0.599-2.897,23.333c1.999,6.395,7.395,7.247,7.995,1.55c-0.334,3.165,1.632,11.588,8.243,20.132
	c6.9,8.92,20.068,23.193,26.533,25.182c3.896,1.201,8,2.021,15.29,0.901c5.848-0.901,18.888-16.639,24.887-25.828
	c5.087-7.797,5.391-13.216,5.9-18.888c0.694,5.396,6.783,1.8,8.788-5.396c5.994-17.39,3.297-18.887-2.699-20.387
	c-1.288-15.399-5.913-39.945-12.893-46.17c-25.032-22.336-37.753-25.352-64.755-3.897C56.604,91.298,64.1,123.378,64.1,123.378z"/>
<linearGradient id="SVGID_1_" gradientUnits="userSpaceOnUse" x1="111.2422" y1="145.2461" x2="111.2422" y2="5.2812">
	<stop  offset="0" style="stop-color:#BCBEC0"/>
	<stop  offset="0.2721" style="stop-color:#333334"/>
</linearGradient>
<path fill="url(#SVGID_1_)" d="M150.882,144.151c0,0,10.934-10.387,14.215-9.294c-8.749-3.281-7.655-1.093-7.655-1.093l9.843-7.109
	h-6.561c0,0,8.199-8.747,11.482-6.559c-2.735-3.283-7.109-4.375-7.109-4.375s9.294-16.402,12.027-15.309
	c-13.121,0-14.762,3.827-14.762,3.827c4.373-6.561,8.749-14.216,8.749-14.216l-9.844,3.281c0,0,1.095-31.163-24.057-36.631
	l9.297-6.014c-4.374-1.639-9.841-5.467-11.481-3.281c7.107-3.826,13.668-15.854,14.762-19.135l-15.31,7.108
	c0,0,10.389-8.201,8.747-13.122c-5.466,1.641-9.841,7.108-15.309,7.108c1.094-5.467,8.202-24.056,12.029-24.056
	c-34.991,9.841-39.365,25.697-39.365,25.697s-8.202-3.281-10.935-2.735c6.561,3.827,6.014,8.201,6.014,8.201
	s-19.683-3.826-25.696-2.733c7.654,7.107,10.935,24.056,18.588,24.056c-15.855,6.014-25.696,22.416-25.696,34.444
	c-6.015-4.92-10.936-2.733-10.936-6.561c1.641,8.202,4.375,11.481,4.375,11.481s-7.654-0.546-10.935,2.188
	c4.375,1.64,10.388,7.108,10.388,7.108h-7.107c0,0,6.561,4.92,4.92,6.013c-1.641,1.094-5.467-1.093-5.467-1.093
	s9.841,9.294,10.388,12.028c-6.014,1.64-6.014,1.64-6.014,1.64s9.294,8.201,10.934,10.936c1.641,2.732,6.562,9.295,6.562,9.295
	s3.28-8.202,3.28-9.843c0-1.639-1.093-18.59-1.093-18.59S85.819,92.211,89.1,93.305c4.374,3.827,18.042,16.949,31.711,5.468
	c4.374-2.734,10.389-9.842,15.309-9.842c4.922,1.64,17.495,3.28,14.763,52.488"/>
<path fill="#262626" d="M57.128,174.088c0,0,13.042-80.271,39.124-83.645c3.344,12.804,11.041,13.41,14.577,13.216
	c3.187-0.175,5.431-23.549-10.454-28.205C68.428,76.474,60.276,82.798,57.128,174.088z"/>
<path fill="#5B533D" d="M102.924,55.367c0,0,9.445-6.596,19.637,0c1.198,2.399-3,1.798-3,1.798s-9.142-0.599-14.539,0
	C102.565,57.439,102.924,55.367,102.924,55.367z"/>
<path fill="#262626" d="M138.45,169.892c1.796,0.711,4.794-2.466,5.854-8.114c1.06-5.646,1.942-10.474,1.942-10.474
	s3.428-5.283,4.636-7.152c-0.437,7.46,2.46,7.955,0.875,11.603c-2.231,10.444-10.819,26.623-30.492,45.35
	c0,0-4.588-3.176-4.588-3.883c0,4.236-4.941,8.823-4.941,8.823s-6.707-5.646-6.353-8.117c-2.119,3.177-4.589,3.53-4.589,3.53
	s-24.829-20.652-32.44-44.594c-1.526-4.799,1.397-7.135,1.11-12.21l5.073,6.184c0,0,0.355,17.855,10.549,19.953
	C86.898,153.902,136.951,154.001,138.45,169.892z"/>
<path fill="#FFFFFF" d="M123.674,162.01c0,0,8.382,1.771,9.079,4.961c0,4.253-2.443,14.529-7.683,19.492
	c-6.107,1.417-9.405-3.68-13.003-6.977c-3.897,2.697-4.198,7.194-10.046,8.395c-1.397,0-12.923-10.278-10.129-21.265
	C97.48,159.882,116.34,160.236,123.674,162.01z"/>
</svg>
