<?xml version="1.0" encoding="utf-8"?>
<!-- Generator: Adobe Illustrator 16.0.0, SVG Export Plug-In . SVG Version: 6.00 Build 0)  -->
<!DOCTYPE svg PUBLIC "-//W3C//DTD SVG 1.1//EN" "http://www.w3.org/Graphics/SVG/1.1/DTD/svg11.dtd">
<svg version="1.1" id="Layer_1" xmlns="http://www.w3.org/2000/svg" xmlns:xlink="http://www.w3.org/1999/xlink" x="0px" y="0px"
	 width="216px" height="216px" viewBox="0 0 216 216" enable-background="new 0 0 216 216" xml:space="preserve">
<g>
	<path fill="none" stroke="#ECBF9D" stroke-width="5" stroke-linecap="round" stroke-linejoin="round" stroke-miterlimit="10" d="
		M68.646,124.731c0,0-11.579,0.479-2.547,18.83c1.753,5.159,6.489,5.849,7.018,1.251c-0.293,2.555-2.919,11.054,2.025,18.494
		c5.699,8.579,22.309,36.998,27.983,38.605c3.421,0.967,7.167,2.187,12.958-0.477c1.912-0.877,17.62-25.593,24.887-34.781
		c4.807-6.077,2.672-16.043,3.119-20.62c0.608,4.355,5.953,1.454,7.716-4.354c5.265-14.032,2.896-15.241-2.366-16.452
		c-1.128-12.428-5.187-32.237-11.31-37.262c-21.97-18.03-33.137-20.465-56.844-3.155C62.071,98.84,68.646,124.731,68.646,124.731z"
		/>
	
		<linearGradient id="SVGID_1_" gradientUnits="userSpaceOnUse" x1="107.8052" y1="8.6455" x2="107.8052" y2="144.103" gradientTransform="matrix(1 1.830477e-04 -1.830477e-04 1 0.0195 -0.019)">
		<stop  offset="0.0012" style="stop-color:#F26522"/>
		<stop  offset="0.602" style="stop-color:#F3DFA3"/>
		<stop  offset="1" style="stop-color:#F3E4AA"/>
	</linearGradient>
	<path fill="url(#SVGID_1_)" d="M153.987,81.093c8.72-2.925,9.69,19.407,9.689,24.725s6.863,14.343-6.674,25.941
		c-1.424-8.422-11.185-11.838-14.646,9.585c0,0,2.112-36.214-2.718-45.883c-4.834-9.667-17.312-14.246-17.312-14.246l-12.1,23.841
		l-12.436-24.19c0,0-21.884,1.81-21.435,63.232c0,0-13.168-34.774-16.283-9.895c-7.25-6.769-6.612-11.004-2.744-19.705
		c-6.765-11.118,6.768-6.282-6.763-25.62C37.035,69.54,30.75,71.473,30.75,71.473s28.037-2.896,37.704,3.389
		c-0.965-10.15-0.961-31.903,6.776-44.47c5.803-13.052,5.804-16.917,5.804-16.917s-5.323,32.386,2.893,38.672
		c8.216,6.285,12.567,10.636,12.567,10.636s12.086-7.732,4.839-32.386c13.046,20.789,9.663,26.105,9.663,26.105
		s9.931-25.034,24.66-35.284c14.544-10.12,14.503-12.565,14.503-12.565s-5.361,15.891-15.959,35.284
		c-5.649,17.579,5.062,21.037,5.062,21.037s13.307-9.431,8.959-17.65c9.663,14.987,5.994,23.849,5.509,33.034
		c0,0,11.965-8.638,31.145-5.697c-8.64,2.072-13.001,7.656-16.416,12.437c-4.321,6.046-9.679,11.918-9.679,12.956
		C158.778,100.054,152.088,81.728,153.987,81.093z"/>
	<polygon fill="#EADB9D" points="119.381,123.543 123.873,120.78 124.219,122.507 128.366,118.706 129.057,121.471 134.24,118.019 
		135.968,121.472 138.388,120.092 138.386,125.621 134.583,124.583 131.818,125.274 129.401,123.199 128.018,125.273 
		124.908,124.235 123.18,125.272 	"/>
	<polygon fill="#EADB9D" points="102.103,123.194 97.61,120.43 97.265,122.156 93.12,118.354 92.428,121.12 87.245,117.664 
		85.516,121.118 83.098,119.738 83.097,125.265 86.898,124.229 89.662,124.92 92.082,122.849 93.463,124.921 96.573,123.884 
		98.301,124.923 	"/>
</g>
</svg>
