<?xml version="1.0" encoding="utf-8"?>
<!-- Generator: Adobe Illustrator 16.0.0, SVG Export Plug-In . SVG Version: 6.00 Build 0)  -->
<!DOCTYPE svg PUBLIC "-//W3C//DTD SVG 1.1//EN" "http://www.w3.org/Graphics/SVG/1.1/DTD/svg11.dtd">
<svg version="1.1" id="Layer_1" xmlns="http://www.w3.org/2000/svg" xmlns:xlink="http://www.w3.org/1999/xlink" x="0px" y="0px"
	 width="216px" height="216px" viewBox="0 0 216 216" enable-background="new 0 0 216 216" xml:space="preserve">
<path fill="#4C331B" d="M97.125,55.91c0,0,0.067-62.511,51.308-22.058c41.643,32.876,14.716,141.608,14.716,141.608l-18.512-4.851
	c0,0,19.356-63.863-0.52-102.711c-11.113-21.719-9.594-19.395-50.829-18.222"/>
<path fill="#4C331B" d="M120.403,54.471c0,0-0.066-62.51-51.308-22.058C27.453,65.289,54.379,174.021,54.379,174.021l18.512-4.852
	c0,0-19.357-63.862,0.521-102.711c11.113-21.718,9.594-19.395,50.829-18.221"/>
<path fill="#4C331B" d="M105.539,39.127c0,0,33.024-40.861,81.996-1.917c39.801,31.647,8.633,111.246,8.633,111.246l-18.223-5.274
	c0,0,18.701-45.073,0.959-81.037c-9.918-20.105-23.976-24.934-65.213-25.894"/>
<path fill="#4C331B" d="M114.272,40.086c0,0-33.025-40.86-81.998-1.918c-39.799,31.648-8.631,111.247-8.631,111.247l18.221-5.275
	c0,0-18.701-45.074-0.958-81.037c9.918-20.106,23.975-24.935,65.213-25.893"/>
<path fill="none" stroke="#B18A6F" stroke-width="5" stroke-linejoin="round" stroke-miterlimit="10" d="M69.131,117.908
	c0,0-12.351-1.156-4.374,17.37c1.286,6.947,6.996,14.485,7.519,9.519c-0.292,2.762,0.864,13.191,6.627,20.641
	c6.016,7.776,21.287,19.177,26.923,20.911c3.397,1.045,5.228,1.308,10.978-1.569c1.898-0.948,16.709-10.435,23.003-17.511
	c5.393-6.067,6.142-16.772,6.737-22.731c2.979,2.979,3.614-3.855,5.363-10.129c5.608-15.341,0.463-16.627-4.685-17.014
	c2.308-13.665-1.499-22.793-8.202-30.278c-22.272-15.625-26.646-18.654-56.253-3.814C64.962,92.226,69.131,117.908,69.131,117.908z"
	/>
<path fill="#4C331B" d="M65.385,134.533l-1.292-1.111c0,0-6.813-14.938-1.834-23.842c-2.232-8.358,0.162-19.483,8.126-21.752
	c2.519-10.318,4.944-15.135,9.063-16.693c2.438-0.921,6.045-0.848,6.045-0.848s2.593-8.92,16.839-8.036
	c9.704-1.713,11.714-1.93,15.465,0.596c6.406-0.419,7.75-2.087,13.37,3.989c1.814,1.954,3.36,4.679,3.36,4.679
	s6.333,0.371,9.98,6.27c2.749,5.457,1.79,6.735,1.79,6.735s4.042,0.39,5.914,9.111c2.046,9.538,4.742,12.128,3.437,17.422
	c-0.48,6.233,1.758,11.269-5.756,22.777c-7.831,9.75-6.712-22.538-5.674-33.646c-3.677,1.062-6.346,0.481-6.832-0.756
	c-0.485-1.238-0.208-10.962-0.208-10.962s-12.708,12.983-15.453,12.537c-1.707-3.138-2.485-9.973-0.317-14.155
	c-6.792,9.138-13.117,17.523-14.195,16.232c-1.313-3.102-2.475-6.252-1.698-12.09c0.121-5.759,0.121-5.759,0.121-5.759
	s-3.935,9.359-6.732,15.111c-2.26,0.792-4.954-6.555-6.593-8.551c-1.638-1.996-4.649-3.603-4.649-3.603s0.817,10.818-1.228,11.43
	c-2.044,0.612-9.924-2.485-9.924-2.485s-0.666-1.452-2.648,7.323c-1.983,8.776-2.21,16.507-2.21,16.507l-1.375,5.653
	C70.277,126.617,70.184,143.123,65.385,134.533z"/>
<path opacity="0.4" fill="#6EBE45" d="M72.312,117.488l73.213-0.274c0,0,2.965-0.516,3.215,5.729c0.765,6.381,2.323,10.021,0,13.283
	c-2.323,3.261-9.544,8.218-18.791,8.664c-4.901,0.237-12.735-7.59-20.842-7.59c-8.234,0-15.438,7.462-22.353,7.52
	c-9.168,0.077-16.235-5.563-18.49-9.115c-0.713-6.123,0-13.803,0-13.803S69.225,117.488,72.312,117.488z"/>
<path fill="#4C331B" d="M74.371,87.558c0,0,14.328-46.033,36.332-44.595c22.004,1.439,32.238,36.443,32.238,36.443L74.371,87.558z"
	/>
<path fill="#51B848" d="M82.847,62.383c0,0-6.201-8.871,0.744-16.303c12.402-4.556,43.654-6.234,53.079,0.959
	c2.48,7.432,0.248,14.865-1.735,16.063C132.555,64.541,91.28,68.137,82.847,62.383z"/>
<path fill="#E2D31F" d="M20.665,143.661l2.397,1.438l15.345-4.315l0.959-4.795c0,0,8.152,19.661,7.193,21.578
	c-0.959,1.918-17.263,7.193-19.661,5.755C24.501,161.882,20.186,145.099,20.665,143.661z"/>
<path fill="#E2D31F" d="M50.875,165.24l2.397,1.438l15.344-4.316l0.96-4.795c0,0,8.151,19.66,7.192,21.579
	c-0.959,1.917-17.263,7.191-19.66,5.753C54.71,183.461,50.395,166.678,50.875,165.24z"/>
<path fill="#E2D31F" d="M199.084,140.783l-2.396,1.439l-15.345-4.316l-0.959-4.794c0,0-8.151,19.659-7.193,21.576
	c0.959,1.919,17.264,7.193,19.66,5.756C195.249,159.005,199.563,142.223,199.084,140.783z"/>
<path fill="#E2D31F" d="M165.434,170.336l-2.378,1.471l-15.402-4.104l-1.025-4.781c0,0-7.879,19.77-6.894,21.675
	c0.984,1.903,17.359,6.953,19.737,5.482C161.849,188.608,165.933,171.767,165.434,170.336z"/>
<path fill="#E2D31F" d="M150.469,96.771c0,0-3.212,6.381-3.212,17.16c0,10.777-1.44,19.659-1.44,19.659s-1.906,9.575-1.438,11.45
	c0.469,1.873,0,5.623,4.686,3.748s12.577-11.841,12.577-11.841l0.958-31.169C162.6,105.779,154.688,96.771,150.469,96.771z"/>
</svg>
