<?xml version="1.0" encoding="utf-8"?>
<!-- Generator: Adobe Illustrator 16.0.0, SVG Export Plug-In . SVG Version: 6.00 Build 0)  -->
<!DOCTYPE svg PUBLIC "-//W3C//DTD SVG 1.1//EN" "http://www.w3.org/Graphics/SVG/1.1/DTD/svg11.dtd">
<svg version="1.1" id="Layer_1" xmlns="http://www.w3.org/2000/svg" xmlns:xlink="http://www.w3.org/1999/xlink" x="0px" y="0px"
	 width="216px" height="216px" viewBox="0 0 216 216" enable-background="new 0 0 216 216" xml:space="preserve">
<g>
	<path fill="#4C301D" d="M88.592,139.338l37.16-0.133c0,0,11.201,15.6,14.15,17.367c-5.109,1.375-7.861,1.375-7.861,1.375
		l3.145,7.072l-5.109-1.768v3.93l-3.73,0.393c0,0-5.895,6.484-4.127,7.662c-3.338-0.982-3.141-1.77-3.141-1.77l-1.377,2.752
		c0,0-9.036,4.322-21.021,0.98c-0.982-3.338-0.982-2.357-0.982-2.357s-2.426,1.035-3.998,1.035c1.801-5.01-3.468-8.105-3.468-8.105
		l-5.107,0.393l0.785-4.715l-8.679,0.934l4.553-6.631l-7.467-4.141C72.317,153.611,87.412,141.988,88.592,139.338z"/>
	<g>
		<path fill="none" stroke="#D6AD72" stroke-width="5" stroke-linejoin="round" stroke-miterlimit="10" d="M68.108,114.316
			c0,0-10.905,0.244-2.833,19.213c1.53,5.318,5.97,6.123,6.572,1.43c-0.334,2.607,1.13,9.602,6.428,16.781
			c5.53,7.496,16.135,19.533,21.436,21.297c3.196,1.062,6.569,1.818,12.608,1.029c4.846-0.631,15.912-13.383,21.037-20.857
			c4.35-6.342,4.701-10.812,5.23-15.486c0.473,4.469,5.568,1.615,7.359-4.291c5.279-14.246,3.08-15.535-1.844-16.887
			c-0.775-12.741-4.133-33.098-9.777-38.37c-20.25-18.917-30.697-21.647-53.4-4.439C62.523,87.683,68.108,114.316,68.108,114.316z"
			/>
		<g>
			<path fill="#4C301D" d="M82.533,149.943c0,0-2.358,8.908-10.74-4.453c-1.2-5.67-5.652-27.742-5.763-39.292
				c-0.06-6.304,3.641-6.172,4.167-6.153c0.602,4.297,4.125,29.166,6.086,31.8s8.868,13.385,8.868,13.385"/>
			<path fill="#4C301D" d="M129.42,150.992c0,0,2.357,8.906,10.74-4.455c1.197-5.668,5.65-27.74,5.762-39.291
				c0.059-6.303-3.641-6.173-4.168-6.154c-0.602,4.299-4.125,29.166-6.086,31.8s-8.869,13.385-8.869,13.385"/>
			<path fill="#4C301D" d="M88.592,139.598l37.16-0.131c0,0,11.201,15.598,14.15,17.369c-5.109,1.375-7.861,1.375-7.861,1.375
				l3.145,7.072l-5.109-1.77v3.93l-3.73,0.393c0,0-5.895,6.482-4.127,7.662c-3.338-0.982-3.141-1.768-3.141-1.768l-1.377,2.75
				c0,0-9.036,4.322-21.021,0.982c-0.982-3.34-0.982-2.357-0.982-2.357s-2.426,1.031-3.998,1.031
				c1.801-5.008-3.468-8.105-3.468-8.105l-5.107,0.395l0.785-4.715l-8.679,0.934l4.553-6.631l-7.467-4.139
				C72.317,153.875,87.412,142.25,88.592,139.598z"/>
			<path fill="#FDFDFE" d="M90.747,145.707c0,0-7.073,8.381-6.287,12.311c2.095,4.715,8.121-1.572,8.383-3.143
				c0.261-1.57,0.262,12.574,3.929,14.145c3.667,1.57,18.072,1.834,19.906-0.787c1.834-2.619,5.238-8.904,4.453-12.834
				c1.834,4.191,14.93,4.191,2.881-9.432C121.131,144.396,90.747,145.707,90.747,145.707z"/>
			<polygon fill="#4C301D" points="114.094,159.865 99.688,159.971 106.819,168.039 			"/>
		</g>
	</g>
</g>
<path fill="#4C301D" d="M55.705,91.648c0,0-1.223,21.901-7.084,31.182c7.571-3.176,6.595-5.373,6.595-5.373
	s-1.71,17.586-3.665,17.586c5.211-0.65,6.352-9.77,6.352-9.77l1.954,15.875c3.257-1.953,3.664-4.885,3.664-4.885
	s-6.595-24.67,3.665-23.693c1.953-7.164,3.419-19.295,3.419-19.295L55.705,91.648z"/>
<path fill="#7A4F31" d="M143.441,88.64c0,0,4.885-24.705-0.393-32.67c-5.277-7.964-24.404-23.615-34.243-24.009
	c-9.84-0.394-35.118,12.649-38.574,20.861c-3.456,8.211-0.394,36.212-0.394,36.212l72.816,3.542L143.441,88.64z"/>
<path fill="#4C301D" d="M152.105,145.059c0,0-6.109-1.467-6.76-5.373c3.906-5.863,10.256-22.473-1.709-25.24
	c-3.258-4.561,2.285-7.199,2.285-7.199l15.301,1.337c0,0-7.816,23.45-2.605,27.356c-5.861-2.605-5.211-3.906-5.211-3.906
	s1.955,10.42,3.908,11.721c1.955,1.305-7.164-2.602-7.164-2.602L152.105,145.059z"/>
<path fill="#F1B41C" d="M97.96,67.139l9.038-4.884l9.526,5.129c0,0,0.066,15.93-9.282,19.296
	C99.387,84.062,97.586,78.734,97.96,67.139z"/>
<path fill="#7A4F31" d="M7.702,67.292c0,0,41.828,45.66,160.278,49.595c31.463-2.361,53.74-27.893,41.088-28.34
	C167.811,87.087,89.849,80.493,65.515,68.85C41.013,57.125-8.585,55.876,7.702,67.292z"/>
<path fill="#F1B41C" d="M127.752,79.28c-0.232,0.46-0.885,0.6-1.459,0.312l0,0c-0.576-0.289-0.855-0.895-0.625-1.356l4.336-8.667
	c0.23-0.461,0.883-0.6,1.459-0.312l0,0c0.574,0.288,0.855,0.894,0.625,1.354L127.752,79.28z"/>
<path fill="#F1B41C" d="M122.906,77.417c-0.232,0.46-0.885,0.599-1.459,0.312l0,0c-0.576-0.289-0.857-0.895-0.625-1.356l4.336-8.667
	c0.23-0.46,0.883-0.601,1.459-0.312l0,0c0.574,0.288,0.854,0.894,0.623,1.354L122.906,77.417z"/>
<path fill="#F1B41C" d="M139.719,79.767c-0.201,0.402-0.771,0.524-1.273,0.272l0,0c-0.502-0.252-0.746-0.781-0.547-1.184
	l3.789-7.572c0.201-0.402,0.773-0.524,1.275-0.272l0,0c0.502,0.251,0.746,0.78,0.547,1.184L139.719,79.767z"/>
<path fill="#F1B41C" d="M84.213,74.629c0.12,0.532,0.756,0.843,1.421,0.691l0,0c0.665-0.149,1.106-0.702,0.986-1.234l-2.258-10.014
	c-0.12-0.532-0.755-0.842-1.422-0.692l0,0c-0.664,0.151-1.105,0.703-0.985,1.235L84.213,74.629z"/>
<path fill="#F1B41C" d="M89.769,75.188c0.121,0.532,0.756,0.843,1.421,0.692l0,0c0.665-0.15,1.106-0.703,0.987-1.234L89.92,64.632
	c-0.121-0.533-0.756-0.842-1.422-0.692l0,0c-0.665,0.15-1.105,0.702-0.986,1.234L89.769,75.188z"/>
<path fill="#F1B41C" d="M73.286,71.769c0.135,0.429,0.678,0.64,1.215,0.471l0,0c0.536-0.168,0.861-0.653,0.727-1.082l-2.539-8.077
	c-0.135-0.43-0.679-0.64-1.216-0.471l0,0c-0.536,0.168-0.861,0.652-0.727,1.082L73.286,71.769z"/>
</svg>
