<?xml version="1.0" encoding="utf-8"?>
<!-- Generator: Adobe Illustrator 16.0.0, SVG Export Plug-In . SVG Version: 6.00 Build 0)  -->
<!DOCTYPE svg PUBLIC "-//W3C//DTD SVG 1.1//EN" "http://www.w3.org/Graphics/SVG/1.1/DTD/svg11.dtd">
<svg version="1.1" id="Layer_1" xmlns="http://www.w3.org/2000/svg" xmlns:xlink="http://www.w3.org/1999/xlink" x="0px" y="0px"
	 width="216px" height="216px" viewBox="0 0 216 216" enable-background="new 0 0 216 216" xml:space="preserve">
<path fill="#C9C9C9" d="M169.961,82.223l3.3-0.661c0,0-11.547-11.547-18.146-12.206c-5.553-0.556-93.362,0.329-93.362,0.329
	s-13.856,9.073-15.835,12.536c8.412-0.495-13.196,8.248-17.815,24.742c8.578-4.619,8.907-0.989,8.907-0.989
	s-17.155,17.485-1.155,52.95c2.475-11.877,7.917-9.403,7.917-9.403l10.393,22.765l11.876-7.919l0.495,30.187l12.867-11.382
	l13.361,18.805v-16.824l15.341,25.731l16.33-19.794l0.494,13.855l17.32-20.784l4.453,6.929l2.475-10.886l11.219,9.237l0.164-20.125
	l7.422,2.97l1.484-17.32c0,0,3.795-17.319,15.011,0.824c3.298-12.206,2.64-48.166-7.588-51.134
	c2.999,0.308,4.619-2.311,12.207,4.289C189.755,100.037,176.411,81.843,169.961,82.223z"/>
<g>
	<path fill="#686868" d="M50.846,59.723l124.396-33.851c0,0,2.438,2.219,2.006,4.71c-4.698,1.648-126.128,32.01-126.128,32.01
		S49.384,60.753,50.846,59.723z"/>
	<circle fill="#A02323" cx="190.058" cy="23.722" r="9.92"/>
	<path fill="#686868" d="M171.901,17.906c0,0,4.053-3.993,7.383-1.748c3.332,2.244,9.979,19.251,4.671,23.385
		c-5.235,1.632-6.921-1.815-6.921-1.815S170.47,23.943,171.901,17.906z"/>
	<path fill="#686868" d="M186.973,40.26c-0.048,1.628-1.407,2.909-3.035,2.86l-1.966-0.059c-1.629-0.048-2.908-1.407-2.86-3.035l0,0
		c0.049-1.629,1.408-2.909,3.035-2.861l1.965,0.058C185.741,37.273,187.021,38.632,186.973,40.26L186.973,40.26z"/>
	<path fill="#686868" d="M186.798,46.157c-0.05,1.627-1.408,2.907-3.036,2.86l-1.966-0.06c-1.628-0.048-2.908-1.407-2.859-3.035l0,0
		c0.048-1.629,1.406-2.909,3.035-2.861l1.966,0.059C185.565,43.169,186.845,44.527,186.798,46.157L186.798,46.157z"/>
	<path fill="#686868" d="M186.465,51.332c-0.049,1.628-1.408,2.909-3.036,2.861l-1.966-0.059c-1.628-0.048-2.908-1.408-2.86-3.035
		l0,0c0.049-1.629,1.408-2.909,3.035-2.861l1.965,0.059C185.232,48.345,186.513,49.704,186.465,51.332L186.465,51.332z"/>
	<polygon fill="#9B9A9A" points="182.424,48.887 186.228,59.282 182.479,65.072 178.724,59.059 	"/>
	<polygon fill="#9B9A9A" points="199.478,66.249 189.08,70.051 183.291,66.303 189.304,62.547 	"/>
	<polygon fill="#9B9A9A" points="182.63,84.032 178.825,73.636 182.575,67.847 186.33,73.859 	"/>
	<polygon fill="#9B9A9A" points="166.124,66.329 176.519,62.525 182.309,66.274 176.296,70.028 	"/>
	<circle fill="#458DB2" cx="182.885" cy="66.425" r="2.949"/>
	<polygon fill="#458DB2" points="182.673,64.541 186.422,58.752 191.986,58.023 189.662,62.558 184.07,65.655 	"/>
	<polygon fill="#458DB2" points="183.771,66.719 189.562,70.468 190.289,76.033 185.754,73.708 182.655,68.117 	"/>
	<polygon fill="#458DB2" points="182.196,68.549 178.447,74.34 172.882,75.068 175.209,70.534 180.8,67.436 	"/>
	<polygon fill="#458DB2" points="181.275,66.466 175.486,62.718 174.756,57.152 179.293,59.478 182.39,65.069 	"/>
</g>
<path fill="#FFFFFF" stroke="#E2A88F" stroke-width="5" stroke-miterlimit="10" d="M66.28,105.961c0,0,1.792,11.856,1.75,13.284
	c-0.042,1.43-1.328,18.07,9.229,30.937c17.155,19.135,22.433,18.969,33.649,18.969c6.434,0.165,13.28-2.226,29.113-19.546
	c6.361-10.323,9.719-23.993,9.783-26.137c0.064-2.145-0.812-20.767-0.812-20.767s-1.064-24.352-9.752-32.836
	c-8.688-8.484-70.836,0.753-72.28,13.228C65.516,95.566,66.28,105.961,66.28,105.961z"/>
<path fill="#24141E" d="M108.929,39.334c0,0-37.546-12.63-53.114,43.877c-8.907,32.331,20.634,65.612,20.634,65.612l-6.943-20.004
	l-2.869-22.848l1.716-9.605l20.729-11.542l-6.244,5.537c0,0-5.96,1.968-9.293,5.803c0.992,1.237,0.348,0.323,0.863,1.053
	c0.682-0.382,4.693-7.504,21.188-2.9c2.76-2.6,2.76-2.6,2.76-2.6s-5.952-2.77-8.465-2.488c3.952-0.597,35.82-9.395,38.44-13.25
	c-3.702,4.181-10.63,8.625-20.742,11.9c10.343,1.023,25.013,0.744,33.51-8.301c3.642,9.765,7.171,38.595,7.337,45.037
	c0.166,6.443,1.402-7.752,1.402-7.752s-1.623,17.702-9.815,32.743c23.038-31.371,22.57-47.215,20.852-61.571
	C161.149,78.743,148.517,28.117,108.929,39.334z"/>
<path fill="#24141E" d="M114.538,92.733l3.151,2.24c0,0,15.767-9.008,22.015,1.371c1.629-0.667,1.629-0.667,1.629-0.667
	S136.707,80.876,114.538,92.733z"/>
<g>
	<path fill="#2B1A1E" d="M67.596,99.359c0,0-1.219,4.254,0.536,6.453c1.209,10.059,4.678,16.437,8.961,17.811
		c5.289,1.699,14.681,3.629,20.834-3.333c4.975-8.077,4.438-10.388,6.053-11.348c1.289-0.765,5.214-0.12,5.214-0.12
		s4.604,12.181,8.972,14.801c3.465,1.321,11.6,3.693,19.401-1.438c4.857-4.147,9.232-16.534,9.317-19.394
		c0.086-2.858,0.138-4.645,0.138-4.645s-31.331-3.674-35.141,1.934c-1.906,2.924-4.108,2.43-6.253,2.266
		c-3.464,0.33-4.617-1.155-6.1-3.229C97.547,97.231,76.798,96.056,67.596,99.359z"/>
	<polygon fill="#2B1A1E" points="102.78,108.154 101.671,102.675 110.083,102.675 109.808,108.604 	"/>
</g>
<path fill="#FFFFFF" d="M96.912,101.424c0,0,1.672,0.884,2.102,2.803c0.428,1.921,0.126,12.045-6.208,16.865
	c-7.512,3.59-14.686-0.08-15.396-0.698c-0.71-0.616-2.656-2.026-4.44-6.832c-1.35-4.102-2.704-10.07,0.617-11.521
	C76.906,100.59,89.081,99.402,96.912,101.424z"/>
<path fill="#FFFFFF" d="M115.818,100.54c0,0-1.766,0.882-2.219,2.802c-0.455,1.921-0.158,12.046,6.5,16.872
	c7.902,3.602,15.463-0.062,16.211-0.679c0.748-0.615,2.747-3.117,4.289-7.622c0.638-4.428,3.27-9.273-0.224-10.728
	C136.883,99.729,124.066,98.528,115.818,100.54z"/>
<ellipse transform="matrix(0.9998 -0.022 0.022 0.9998 -0.7832 2.4176)" fill="#24141E" cx="109.282" cy="36.736" rx="26.096" ry="18.863"/>
</svg>
