<?xml version="1.0" encoding="utf-8"?>
<!-- Generator: Adobe Illustrator 16.0.0, SVG Export Plug-In . SVG Version: 6.00 Build 0)  -->
<!DOCTYPE svg PUBLIC "-//W3C//DTD SVG 1.1//EN" "http://www.w3.org/Graphics/SVG/1.1/DTD/svg11.dtd">
<svg version="1.1" id="Layer_1" xmlns="http://www.w3.org/2000/svg" xmlns:xlink="http://www.w3.org/1999/xlink" x="0px" y="0px"
	 width="216px" height="216px" viewBox="0 0 216 216" enable-background="new 0 0 216 216" xml:space="preserve">
<g>
	<path fill="#F7E2AB" d="M90.37,66.815c0,0-12.983-13.982-14.48-18.977c5.992,1.998,12.983,2.497,12.983,2.497
		s-1.998-4.494-8.489-26.966c9.488-1.997,12.983,4.495,19.975,11.985c2.995-10.986,12.484-22.472,12.484-22.472
		s13.48,18.478,14.98,31.46c10.986-10.486,32.457-0.499,32.457-0.499s-21.471,12.483-21.471,15.48c-1,3.496-15.98,7.989-15.98,7.989
		S105.352,73.307,90.37,66.815z"/>
	<path fill="#F7E2AB" d="M128.821,65.317c0,0,12.984-13.983,14.482-18.976c-5.994,1.997-12.984,2.497-12.984,2.497
		s7.49-0.5,13.982-22.971c-9.488-1.998-18.477,0.5-25.469,7.99c0-22.97-11.983-30.461-11.983-30.461s-13.98,26.466-15.48,39.449
		c-10.985-10.486-32.458-8.488-32.458-8.488S80.384,54.83,80.384,57.826c0.999,3.496,15.979,7.99,15.979,7.99
		S113.841,71.809,128.821,65.317z"/>
	<path fill="#824D30" d="M93.866,62.32c0,0,1.997-6.991,4.494-6.991s20.973,0,20.973,0s3.996,5.993,1.998,7.989
		C119.333,65.317,97.861,72.308,93.866,62.32z"/>
	<path fill="none" stroke="#ECBF9D" stroke-width="5" stroke-linecap="round" stroke-linejoin="round" stroke-miterlimit="10" d="
		M69.232,137.674c0,0-12.56,0.525-2.759,20.441c1.902,5.6,7.041,6.346,7.611,1.357c-0.317,2.771,0.507,7.443,4.852,16.02
		c5.153,10.17,23.375,24.984,29.53,26.727c3.711,1.051,5.709,1.314,11.988-1.574c2.074-0.955,19.539-13.484,24.99-23.314
		c4.027-7.266,5.133-11.578,5.619-16.545c0.66,4.727,6.457,1.576,8.367-4.727c5.709-15.232,3.139-16.547-2.57-17.859
		c-1.227-13.488-5.631-34.99-12.273-40.443c-23.834-19.565-35.944-22.207-61.655-3.414
		C62.095,109.574,69.232,137.674,69.232,137.674z"/>
	<path fill="#F7E2AB" d="M130.987,99.939c0,0-22.639-5.327-29.963,3.995c-7.323,9.322-18.643,43.943-25.302,46.607
		c1.998,12.652,1.333,12.652,1.333,12.652s-19.308,25.299-23.97,26.631c-1.332-3.994,4.661-17.977,4.661-17.977
		s-26.633,33.289-31.294,32.625c9.322-17.977,25.301-62.586,13.983-90.551c1.331-27.964,21.306-55.263,36.62-55.263
		c15.313,0,20.64,6.658,20.64,6.658s35.954-11.985,57.259,20.64C129.653,97.941,130.987,99.939,130.987,99.939z"/>
	<path fill="#F7E2AB" d="M124.327,97.276c0,0,8.654,1.332,15.979,16.646c7.326,15.312,9.986,37.951,9.986,37.951l2.998,0.832
		l6.324-15.479l-1.33-13.318c0,0,9.986-6.492,5.99-21.139c-3.994-14.647-10.65-19.476-10.65-19.476s-27.301-19.309-29.963,9.988
		C123.661,98.606,124.327,97.276,124.327,97.276z"/>
	<path fill="#F9CB10" d="M152.79,142.219v11.486l9.988-13.982l2.496-22.473l11.486-25.467c0,0,9.486-30.96-14.982-50.935
		c-24.469-19.975-58.923-15.979-67.412-15.979C11.972,38.351,43.43,97.276,43.43,97.276l4.995-11.985
		c0,0-16.979-42.944,53.432-49.436c61.42-0.5,69.91,34.955,65.914,54.93c-4.494,8.989-3.994,10.985-3.994,10.985
		s4.494,6.492-3.496,17.978c-3.496,5.492-3.496,5.492-3.496,5.492l1,8.988L152.79,142.219z"/>
	<path fill="#3D3635" d="M149.962,157.199l-2.998,7.49c0,0,6.492-0.998,6.492-4.494S149.962,157.199,149.962,157.199z"/>
	<path fill="#3D3635" d="M154.122,164.877c-1.498,4.584-1.998,18.846-35.787,40.75c-7.822,1.188-11.152,0.17-11.152,0.17
		s-30.461-21.055-35.122-35.826l4.993-6.113l6.659,18.338c0,0,19.641,22.412,29.628,21.732c10.256,0,29.297-22.072,29.297-22.072
		s5.66-11.99,6.658-16.471"/>
	<path fill="#F7E2AB" d="M41.765,107.43c0,0-9.987,16.646-11.985,17.645c-1.998,0.998,20.641-5.66,20.641-13.65
		C50.42,103.434,41.765,107.43,41.765,107.43z"/>
</g>
</svg>
