<?xml version="1.0" encoding="utf-8"?>
<!-- Generator: Adobe Illustrator 16.0.0, SVG Export Plug-In . SVG Version: 6.00 Build 0)  -->
<!DOCTYPE svg PUBLIC "-//W3C//DTD SVG 1.1//EN" "http://www.w3.org/Graphics/SVG/1.1/DTD/svg11.dtd">
<svg version="1.1" id="Layer_1" xmlns="http://www.w3.org/2000/svg" xmlns:xlink="http://www.w3.org/1999/xlink" x="0px" y="0px"
	 width="216px" height="216px" viewBox="0 0 216 216" enable-background="new 0 0 216 216" xml:space="preserve">
<path fill="none" stroke="#ECBF9D" stroke-width="5" stroke-linecap="round" stroke-linejoin="round" stroke-miterlimit="10" d="
	M55.093,109.385c0,0-14.832,0.619-3.257,24.119c2.246,6.609,8.314,7.489,8.988,1.601c-0.375,3.272-1.947,25.995,5.784,34.431
	c13.046,14.232,27.723,28.202,34.991,30.259c4.383,1.241,9.181,2.8,16.598-0.608c2.449-1.128,16.011-13.641,28.464-26.686
	c6.853-7.178,7.136-24.379,7.709-30.241c0.779,5.577,4.987-3.743,7.242-11.181c6.741-17.975,3.708-19.525-3.031-21.074
	c-1.452-15.919-6.653-41.292-14.497-47.725c-28.147-23.09-42.449-26.205-72.811-4.028C46.666,76.225,55.093,109.385,55.093,109.385z
	"/>
<path fill="#B13225" d="M58.746,136.264c0,0-1.484-55.589,7.296-60.064l12.44-7.458l-0.732-2.985c0,0,15.52,5.441,18.447,9.171
	c5.617-5.632,11.56-9.171,11.56-9.171l2.924,3.729c0,0,15.368-8.204,19.028-6.712c0.73,4.476,0.366,5.409,0.366,5.409
	s5.776,0.402,9.51,1.303c13.566,2,10.915,52.697,10.915,52.697l-0.627,15.335c0,0,5.92-19.979,6.867-22.533
	c3.771-10.146,9.885-27.203,11.86-27.539c0.732-9.698,1.173-12.736,1.173-12.736s13.171,4.849,20.674,2.983
	c-7.868-4.663-22.504-14.733-23.783-20.514c-1.28-5.781-1.101-8.766-1.101-8.766s8.967-5.222,9.881-7.646
	c0.917-2.424-5.854,5.596-12.439,1.865c-6.587-3.729-11.345-8.579-16.467-13.426c-5.121-4.849-17.196-8.766-17.196-8.766
	s0.184-11.003-2.928-14.359c-0.729,5.034-6.769,12.123-6.769,12.123s-24.697-2.985-38.602,10.629c-5.855-1.12-7.135,0-7.135,0
	s1.829-11.936,3.841-12.868c-5.122,2.424-12.073,20.888-18.844,25.176c-6.769,4.29-17.562,9.511-18.111,28.16
	c-5.305,16.224-2.379,22.191-2.012,26.293c0.366,4.104,0.731,5.596,0.731,5.596s12.807,9.325,17.562,28.904
	C58.723,134.754,58.746,136.264,58.746,136.264z"/>
<path fill="#E2E2E2" d="M117.604,130.398c0,0-3.979-4.823,0.562-9.652c4.544-4.831,15.539-22.686,26.775-21.425
	c6.453,11.131,7.056,21.022,7.056,23.96c0,2.942-9.926,26.871-15.661,27.082C134.208,142.852,119.759,131.869,117.604,130.398z"/>
<path fill="#1E1E1E" d="M122.605,93.436c0,0,7.046,1.457,7.289,3.644c0.244,2.187-1.945,3.643-3.888,5.101
	c-1.941,1.458-5.829,7.53-7.528,6.073C116.777,106.795,122.605,93.436,122.605,93.436z"/>
<path fill="#1E1E1E" d="M93.153,95.214c0,0-5.893,2.226-5.803,4.14c0.089,1.913,2.181,2.864,4.062,3.85
	c1.881,0.985,6.076,5.671,7.346,4.181C100.029,105.897,93.153,95.214,93.153,95.214z"/>
<path fill="#A2A5AC" d="M58.897,115.486L46.181,85.982c0,0-13.491,9.458-6.735,28.744c6.756,19.283,10.197,23.304,10.197,23.304
	l9.45,14.901l5.144,1.186l-0.593-12.451l0.593-7.117L58.897,115.486z"/>
<path fill="#A2A5AC" d="M155.56,115.486l12.716-29.504c0,0,13.491,9.458,6.732,28.744c-6.756,19.283-10.195,23.304-10.195,23.304
	l-9.448,14.901l-5.144,1.186l0.59-12.451l-0.59-7.117L155.56,115.486z"/>
<path fill="#E2E2E2" d="M117.604,130.398c0,0-3.308-4.27,0.562-9.652c10.113-14.066,15.539-22.686,26.775-21.425"/>
</svg>
