<?xml version="1.0" encoding="utf-8"?>
<!-- Generator: Adobe Illustrator 16.0.0, SVG Export Plug-In . SVG Version: 6.00 Build 0)  -->
<!DOCTYPE svg PUBLIC "-//W3C//DTD SVG 1.1//EN" "http://www.w3.org/Graphics/SVG/1.1/DTD/svg11.dtd">
<svg version="1.1" id="Layer_1" xmlns="http://www.w3.org/2000/svg" xmlns:xlink="http://www.w3.org/1999/xlink" x="0px" y="0px"
	 width="216px" height="216px" viewBox="0 0 216 216" enable-background="new 0 0 216 216" xml:space="preserve">
<g>
	<g>
		<path fill="#AD9735" d="M75.378,64.242c0,0,15.857-22.574,33.279-21.509c-0.223,21.082-0.893,46.424-0.893,46.424l-35.736,6.176
			C72.028,95.333,74.708,64.029,75.378,64.242z"/>
		<path fill="#AD9735" d="M140.657,64.242c0,0-15.856-22.574-33.278-21.509c0.223,21.082,0.893,46.424,0.893,46.424l35.734,6.176
			C144.007,95.333,141.329,64.029,140.657,64.242z"/>
	</g>
	<g>
		<path fill="#B8B192" d="M107.591,95.76l0.214-37.907c0,0-25.769-0.426-27.472,25.342C99.499,98.528,107.591,95.76,107.591,95.76z"
			/>
		<path fill="#B8B192" d="M107.805,95.76l-0.214-37.907c0,0,25.768-0.426,27.472,25.342C115.897,98.528,107.805,95.76,107.805,95.76
			z"/>
	</g>
	<linearGradient id="SVGID_1_" gradientUnits="userSpaceOnUse" x1="196.0332" y1="145.6016" x2="151.9098" y2="82.5869">
		<stop  offset="0" style="stop-color:#D7DF23"/>
		<stop  offset="1" style="stop-color:#8DC63F"/>
	</linearGradient>
	<path fill="url(#SVGID_1_)" d="M157.424,88.732c0,0,13.842,23.639,17.887,25.129c3.941,1.451,16.825,3.408,28.112-7.666
		c2.77-0.214,2.982,0.638,2.982,0.638s-0.215,43.444-23.64,44.934c-25.555-4.045-45.786-29.176-48.769-53.453
		C142.302,86.176,154.016,81.491,157.424,88.732z"/>
	
		<linearGradient id="SVGID_2_" gradientUnits="userSpaceOnUse" x1="2605.9697" y1="145.6016" x2="2561.8464" y2="82.5869" gradientTransform="matrix(-1 0 0 1 2625.332 0)">
		<stop  offset="0" style="stop-color:#D7DF23"/>
		<stop  offset="1" style="stop-color:#8DC63F"/>
	</linearGradient>
	<path fill="url(#SVGID_2_)" d="M57.971,88.732c0,0-13.841,23.639-17.887,25.129c-3.941,1.451-16.824,3.408-28.112-7.666
		c-2.769-0.214-2.98,0.638-2.98,0.638s0.213,43.444,23.639,44.934c25.554-4.045,45.785-29.176,48.767-53.453
		C73.092,86.176,61.379,81.491,57.971,88.732z"/>
	<path fill="#AD9735" d="M101.203,89.371l12.565,0.426l5.962-11.5h-3.406c0,0-1.065-12.565-1.917-14.055
		c-0.852-1.491-4.686-2.556-6.176-2.556c-1.49,0-5.963,1.278-6.389,2.556c-0.426,1.277-2.768,14.267-2.768,14.267l-2.556-0.211
		L101.203,89.371z"/>
	<path fill="#F4D74C" d="M97.827,78.083c0,0,1.299,9.583,4.551,9.903c3.251,0.32,5.852,0.639,5.852,0.639l-0.325,40.889
		l-35.438-14.057c0,0-3.901-25.235,5.528-30.984C87.423,78.722,97.827,78.083,97.827,78.083z"/>
	<path fill="#F4D74C" d="M117.848,78.083c0,0-1.3,9.583-4.551,9.903c-3.252,0.32-5.854,0.639-5.854,0.639l0.326,40.889
		l35.439-14.057c0,0,3.899-25.235-5.527-30.984C128.252,78.722,117.848,78.083,117.848,78.083z"/>
	<path fill="#E08327" d="M72.614,115.139c0,0,9.117,28.75,36.794,26.834l-0.326-13.898l-3.417-0.639c0,0,0.163-24.436-17.421-26.672
		c-17.584-2.236-13.351,10.861-14.002,12.777C72.287,114.18,72.614,115.139,72.614,115.139z"/>
	<path fill="#E08327" d="M143.366,116.203c0,0-10.965,28.219-34.657,25.822l-0.32-13.896l3.674-0.746c0,0-0.765-23.584,16.485-25.82
		c17.249-2.236,13.097,10.861,13.735,12.777C143.366,114.926,143.366,116.203,143.366,116.203z"/>
	<polygon fill="#898989" points="99.286,141.973 104.397,145.805 112.702,145.805 116.855,141.973 112.384,135.264 104.078,135.264 
			"/>
	<polygon fill="#CFCECE" points="75.647,122.805 78.735,120.143 82.037,124.295 78.629,127.277 	"/>
	<polygon fill="#CFCECE" points="80.013,128.98 83.039,125.986 86.573,129.635 83.42,133.027 	"/>
	<polygon fill="#CFCECE" points="140.344,122.805 137.258,120.143 133.955,124.295 137.365,127.277 	"/>
	<polygon fill="#CFCECE" points="135.98,128.98 132.953,125.986 129.421,129.635 132.573,133.027 	"/>
	<circle fill="#FAF069" cx="88.211" cy="116.521" r="4.897"/>
	<circle fill="#FAF069" cx="126.757" cy="116.521" r="4.898"/>
	<path fill="#725D25" d="M80.758,112.797l14.48,6.494c0,0,0.107-4.9-5.111-7.598C84.91,108.996,80.758,112.797,80.758,112.797z"/>
	<path fill="#725D25" d="M133.252,112.797l-14.481,6.494c0,0-0.106-4.9,5.111-7.598
		C129.099,108.996,133.252,112.797,133.252,112.797z"/>
	<path fill="#725D25" d="M134.126,114.988l-14.563,6.309c0,0,3.546,3.387,9.058,1.354
		C134.13,120.617,134.126,114.988,134.126,114.988z"/>
	<path fill="#725D25" d="M80.272,114.988l14.562,6.309c0,0-3.545,3.387-9.056,1.354C80.269,120.617,80.272,114.988,80.272,114.988z"
		/>
	<path fill="#AD9735" d="M72.878,67.649c0,0-4.471-1.492-13.629,14.48c-1.064,4.898,0.426,5.112,0.426,5.112
		s5.962-1.491,8.306,3.407c2.342,4.897,3.833,5.962,3.833,5.962s0.212-2.981,2.342-8.305C75.294,80.047,75.4,68.312,72.878,67.649z"
		/>
	<path fill="#AD9735" d="M143.052,67.649c0,0,4.471-1.492,13.629,14.48c1.066,4.898-0.424,5.112-0.424,5.112
		s-5.965-1.491-8.307,3.407c-2.344,4.897-4.584,6.814-4.584,6.814s0.428-3.407-1.916-9.157
		C140.573,79.897,140.608,68.292,143.052,67.649z"/>
	<path fill="#FFFFFF" d="M48.675,99.008l13.454,2.411l9.565,8.631l3.033,11.434l-1.632,0.701l-3.034-6.768l-5.133-4.666
		l-3.965-6.533c0,0-10.477-2.91-13.842-1.478c2.02-3.728-4.043-4.355-4.043-4.355"/>
	<path fill="#FFFFFF" d="M38.41,111.141l4.355-2.179l11.898,2.957l8.396,15.012v10.857l-3.152,5.084l-1.213-11.553l-6.063-9.703
		l-1.234-7.598C51.397,114.018,39.38,110.678,38.41,111.141z"/>
	<path fill="#FFFFFF" d="M166.882,99.008l-13.454,2.411l-9.564,8.631l-3.033,11.434l1.632,0.701l3.034-6.768l5.133-4.666
		l3.965-6.533c0,0,10.478-2.91,13.844-1.478c-2.021-3.728,4.044-4.355,4.044-4.355"/>
	<path fill="#FFFFFF" d="M177.146,111.141l-4.354-2.179l-11.898,2.957l-8.396,15.012v10.857l3.151,5.084l1.214-11.553l6.062-9.703
		l1.234-7.598C164.16,114.018,176.177,110.678,177.146,111.141z"/>
	<path fill="#898989" d="M96.807,104.455c0,0,3.048-3.142,3.586-3.33c1.907-1.158,2.579,0.163,1.3,1.584
		c-0.437,0.465-3.317,3.236-3.317,3.236L96.807,104.455z"/>
	<path fill="#898989" d="M121.013,104.455c0,0-3.049-3.142-3.586-3.33c-1.906-1.158-2.578,0.163-1.301,1.584
		c0.438,0.465,3.317,3.236,3.317,3.236L121.013,104.455z"/>
</g>
</svg>
