<?xml version="1.0" encoding="utf-8"?>
<!-- Generator: Adobe Illustrator 16.0.0, SVG Export Plug-In . SVG Version: 6.00 Build 0)  -->
<!DOCTYPE svg PUBLIC "-//W3C//DTD SVG 1.1//EN" "http://www.w3.org/Graphics/SVG/1.1/DTD/svg11.dtd">
<svg version="1.1" id="Layer_1" xmlns="http://www.w3.org/2000/svg" xmlns:xlink="http://www.w3.org/1999/xlink" x="0px" y="0px"
	 width="216px" height="216px" viewBox="0 0 216 216" enable-background="new 0 0 216 216" xml:space="preserve">
<path fill="#1F4C9C" d="M175.117,84.578c-21.639-69.9-65.818-64.141-65.818-64.141s-46.391-4.188-64.802,67.97
	C127.048,88.854,175.117,84.578,175.117,84.578z"/>
<path fill="#070909" d="M89.143,135.35c0,0-2.487,9-10.814,10.928c-2.484,0.094-5.095-3.168-2.515-5.33
	c0.02,1.732,0.735,1.499,1.312,1.474c0.575-0.024,1.957-1.28,0.072-3.086c-2.069-1.28-4.668,1.153-4.018,4.052
	c0.651,2.898,1.941,5.178,5.352,4.812c3.41-0.371,8.812-4.21,12.728-12.96c0,0,0.39-1.147,0.894-0.801
	c0.502,0.344,1.025,11.148,1.025,11.148s1.453-1.447,1.383-5.796c0,0-0.19-2.232,1.59-2.768c0,0-1.706-0.549-1.93-1.308
	c-0.223-0.756-0.397-2.901,0.075-3.442C94.771,131.733,89.143,135.35,89.143,135.35z"/>
<path fill="#9B9A9A" d="M68.514,120.141l3.166,29.318l7.387,2.094l17.412,35.6c0,0,16.884-8.9,27.964,0.523l14.377-35.834
	l7.329-4.71l1.513-22.278l21.633-34.031l1.983-23.791c0,0,2.078-2.095,4.188,0.523s0.524,22.511,0.524,22.511
	s6.804,9.947-1.422,24.841c-0.526,19.893-1.054,26.175-1.054,26.175l-45.905,57.065c0,0-17.939,6.806-29.548,0.522
	c-9.497-8.899-50.654-56.018-50.654-56.018l-0.527-26.176c0,0-10.206-19.081-2.818-27.458c-2.11-15.182-0.348-20.707-0.348-20.707
	s4.749-5.759,5.276,0c0.528,5.759,2.639,20.94,2.639,20.94L68.514,120.141z"/>
<rect x="152.427" y="122.524" fill="#070808" width="4.196" height="27.225"/>
<path fill="#EFDD49" d="M160.719,174.267c0,3.47-2.812,6.282-6.281,6.282l0,0c-3.471,0-6.283-2.812-6.283-6.282v-21.464
	c0-3.472,2.812-6.283,6.283-6.283l0,0c3.469,0,6.281,2.812,6.281,6.283V174.267z"/>
<rect x="60.811" y="124.619" fill="#070808" width="4.195" height="27.223"/>
<path fill="#EFDD49" d="M69.625,176.883c0,3.471-2.813,6.284-6.282,6.284l0,0c-3.469,0-6.283-2.813-6.283-6.284V155.42
	c0-3.47,2.814-6.282,6.283-6.282l0,0c3.469,0,6.282,2.812,6.282,6.282V176.883z"/>
<g>
	<path fill="#EFDD49" d="M61.773,75.32c0,0-6.807,13.612-15.182,11.519c-3.141,10.992-0.524,13.087-0.524,13.087
		s7.329,22.512,10.994,24.082c3.665,1.571,48.688,7.331,50.259,9.424c1.57,2.095,46.593-9.424,53.923-10.471
		c7.329-7.328,9.946-31.934,12.042-31.934c-2.096-5.235-12.042-17.276-57.064-7.33C76.955,70.608,61.773,75.32,61.773,75.32z"/>
	<path fill="#D8C343" d="M62.296,58.044c0,0-2.094,23.035-8.375,26.7c6.805,11.518,9.946,9.423,9.946,9.423s40.835,62.3,46.594,62.3
		s47.117-61.775,47.117-61.775s9.946-2.619,10.47-7.853c-2.618-5.236-11.518-12.042-14.136-20.941
		C151.296,56.997,62.296,58.044,62.296,58.044z"/>
	<path fill="#EFDD49" d="M108.89,17.208c0,0,43.976,24.083,47.641,38.218c2.095,5.234,1.048,14.659,1.048,14.659
		s-3.141,6.806-15.705,7.329c-7.854,21.989-26.7,78.529-31.412,79.053c-3.666,0-28.794-78.529-28.794-78.529
		s-10.47,0.523-15.182-5.759c-4.711-6.282-6.806-14.135-5.759-16.752C61.773,52.808,102.084,17.208,108.89,17.208z"/>
</g>
</svg>
