<?xml version="1.0" encoding="utf-8"?>
<!-- Generator: Adobe Illustrator 16.0.0, SVG Export Plug-In . SVG Version: 6.00 Build 0)  -->
<!DOCTYPE svg PUBLIC "-//W3C//DTD SVG 1.1//EN" "http://www.w3.org/Graphics/SVG/1.1/DTD/svg11.dtd">
<svg version="1.1" id="Layer_1" xmlns="http://www.w3.org/2000/svg" xmlns:xlink="http://www.w3.org/1999/xlink" x="0px" y="0px"
	 width="216px" height="216px" viewBox="0 0 216 216" enable-background="new 0 0 216 216" xml:space="preserve">
<g>
	<ellipse fill="#0B0B0B" cx="108.146" cy="107.407" rx="55.841" ry="65.654"/>
	<path fill="#0B0B0B" d="M109.04,8.212c0,0,26.224-3.747,50.844,50.311c24.621,54.056,27.831,63.691,27.831,63.691
		s5.354,17.662-14.986,33.184c-20.338,15.521-63.688,54.057-63.688,54.057l-72.256-61.549c0,0-14.986-11.24-5.887-29.973
		c9.098-18.733,38-84.564,46.028-92.058C84.954,18.382,94.588,10.354,109.04,8.212z"/>
	<polygon fill="#020202" points="76.288,86.215 79.246,116.599 137.771,114.253 134.916,88.559 	"/>
	<path fill="#E8E7DA" d="M78.912,87.03c0,0-1.004,22.533,1.188,25.797c1.489,2.215,8.789,14.197,13.08,21.275
		c2.026,3.344,3.261,4.895,3.261,4.895s-0.99-16.246-2.817-17.605c-1.52-1.131-10.913-12.168-10.913-12.168l-1.359-17.81
		L78.912,87.03z"/>
	<path fill="#E8E7DA" d="M138.654,91.439c0,0,0.749,18.125-1.442,21.388c-2.194,3.262-16.661,25.967-16.661,25.967
		s-0.487-5.439,2.436-15.363c1.464-1.225,10.979-15.023,10.979-15.023l0.814-13.458L138.654,91.439z"/>
	<path fill="#E8E7DA" d="M73.521,86.485c0,0,10.046,10.076,13.841,12.626c3.661,2.458,27.527-7.832,42.213,2.364
		c0,0,12.361-14.08,16.401-15.901c-0.366-7.282-8.304-24.91-8.304-24.91l-56.441,0.695L73.521,86.485z"/>
	<path fill="#E8E7DA" d="M84.508,96.881c0,0,29.302-8.526,46.839,2.486c-2.854,12.644-8.124,26.985-9.788,39.868
		c-4.278,11.695-6.699,14.162-13.357,19.271c0,0-11.625-10.402-13.867-20.393C94.335,111.192,82.85,94.531,84.508,96.881z"/>
	<path fill="#020202" d="M99.637,99.571c0,0-7.239-1.223,4.996,33.444c2.854,2.855,3.671,1.225,4.895,0.41
		c1.223-0.816,13.256-32.223,7.544-33.038c0,0-5.913,20.8-8.768,21.208C105.45,122.003,99.637,99.571,99.637,99.571z"/>
	<path fill="#E8E7DA" d="M97.191,90.803c0,0,4.689,31.2,9.992,31.606c5.303,0.41,12.439-30.588,10.401-31.403
		C110.446,92.841,107.284,95.289,97.191,90.803z"/>
	<path fill="#0B0B0B" d="M76.685,60.142c0,0,0.413-1.514,30.854-1.789c30.441-0.274,30.647,0.171,30.647,0.171
		s22.834,67.005,29.079,77.134c-7.986,6.572-26.956-23.408-26.956-23.408s-2.65,0.031-2.264-1.025
		c1.304-8.657,0.821-19.507,0.821-19.507l3.088-2.874c0,0-4.196-16.974-8.438-20.533c-5.737-3.01-9.759-5.304-23.732-5.852
		c-13.974-0.547-21.365,0.856-25.856,6.058c-4.492,5.201-9.261,18.479-9.261,18.479l4.796,5.3c0,0-2.189,16.363-0.473,20.162
		c1.816,2.498-2.093,1.438-2.093,1.438s-13.146,24.982-29.115,21.971C61.008,105.202,76.685,60.142,76.685,60.142z"/>
	<path fill="#0B0B0B" d="M71.034,76.698c0,0,33.852-34.339,67.012-5.811C124.411,43.113,87.482,45.407,71.034,76.698z"/>
	<g>
		<path fill="#0B0B0C" d="M76.097,77.997c0,0,1.569-4.485,10.091,1.345c8.522,5.832,13.007,6.952,13.007,6.952
			s1.346,3.588-2.915,4.71c-4.261,1.12-13.681,2.243-16.595-2.916C76.77,82.931,76.097,77.997,76.097,77.997z"/>
		<path fill="#0B0B0C" d="M140.19,78.202c0,0-1.568-4.486-10.09,1.345c-8.522,5.831-13.008,6.952-13.008,6.952
			s-1.346,3.587,2.914,4.708c4.262,1.122,13.682,2.243,16.596-2.915C139.518,83.135,140.19,78.202,140.19,78.202z"/>
	</g>
</g>
</svg>
