<?xml version="1.0" encoding="utf-8"?>
<!-- Generator: Adobe Illustrator 16.0.0, SVG Export Plug-In . SVG Version: 6.00 Build 0)  -->
<!DOCTYPE svg PUBLIC "-//W3C//DTD SVG 1.1//EN" "http://www.w3.org/Graphics/SVG/1.1/DTD/svg11.dtd">
<svg version="1.1" id="Layer_1" xmlns="http://www.w3.org/2000/svg" xmlns:xlink="http://www.w3.org/1999/xlink" x="0px" y="0px"
	 width="216px" height="216px" viewBox="0 0 216 216" enable-background="new 0 0 216 216" xml:space="preserve">
<g>
	<radialGradient id="SVGID_1_" cx="106.8447" cy="144.6328" r="29.9469" gradientUnits="userSpaceOnUse">
		<stop  offset="0.553" style="stop-color:#F9ED32"/>
		<stop  offset="1" style="stop-color:#F26522"/>
	</radialGradient>
	<path fill="url(#SVGID_1_)" d="M70.961,122.146c0,0,16.69,2.919,35.608,16.273c14.467-3.339,9.458-5.981,36.164-15.997
		l-2.272,10.201c0,0-11.869,5.936-24.48,18.546c0,11.869,0,11.869,0,11.869l-7.047,4.08l-8.16-3.337l-1.577-12.566
		c0,0-5.471-11.637-25.871-17.943C70.729,125.112,70.961,122.146,70.961,122.146z"/>
	<path fill="#AEADAE" d="M94.403,85.332c0,0-6.917,8.021-13.254,10.557c-6.339,2.536-9.511,9.192-5.389,12.997
		c4.122,3.804,18.069,7.924,26.31,13.312c6.021,2.854,8.873,2.221,10.776,1.269c1.901-0.952,23.771-14.581,27.575-14.265
		c4.439-2.853,3.802-8.243-4.755-13.313c-7.922-5.705-11.859-7.232-13.443-10.401C115.566,84.854,94.403,85.332,94.403,85.332z"/>
	<polygon fill="#AEADAE" points="108.626,6.25 108.877,123.803 91.153,103.2 	"/>
	<polygon fill="#AEADAE" points="108.468,6.719 107.939,123.803 125.038,101.931 	"/>
	<path fill="#AEADAE" d="M151.137,117.685l-10.104,6.766c0,0,1.204,9.478-1.305,10.753c-2.508,1.277-20.886,6.507-21.896,13.923
		c-1.304,9.563-2.174,46.547-2.174,46.547l8.283,10.001c0,0,6.703-5.619,7.24-10.228c4.358-3.764,10.714-17.988,10.596-23.504
		c-0.115-5.514-0.699-18.068,6.214-20.965c5.405,0.812,5.114,2.044,5.405,0.812c0.259-2.765-0.777-6.728-0.777-6.728l4.055-3.146
		l-1.638-17.438C155.036,124.479,151.252,123.198,151.137,117.685z"/>
	<path fill="#AEADAE" d="M65.177,118.894l10.318,5.912c0,0-1.003,9.501,1.533,10.726c2.537,1.226,21.02,6.088,22.188,13.482
		c1.507,9.539,3.158,46.659,3.158,46.659l-8.127,10.158c0,0-6.759-5.642-7.392-10.238c-4.438-3.678-11.094-17.772-11.094-23.289
		s0.317-18.081-6.657-20.838c-5.389,0.92-5.071,2.146-5.389,0.92c-0.317-2.76,0.634-6.742,0.634-6.742l-4.12-3.065l1.268-17.466
		C61.497,125.112,65.177,124.408,65.177,118.894z"/>
	<path fill="#AEADAE" d="M145.741,100.327c0,0-1.821,6.086-5.546,7.354c0.797,9.192,0.492,17.687,0.492,17.687
		s8.247,1.901,14.632-14.897c0,0-1.598-11.094-1.861-13.631c-0.267-2.536-2.37-49.13-3.726-49.13
		C147.604,47.71,146.273,89.866,145.741,100.327z"/>
	<path fill="#AEADAE" d="M70.439,100.01c0,0,2.11,5.778,5.834,7.046c-0.797,9.192-0.779,17.996-0.779,17.996
		s-8.248,1.9-14.633-14.898c0,0,1.597-11.094,1.862-13.629c0.267-2.537,2.369-49.131,3.725-49.131
		C68.577,47.393,69.907,89.549,70.439,100.01z"/>
	<path fill="#AEADAE" d="M74.494,108.251c0,0-0.001-2.853,2.217-2.219c2.22,0.634,26.626,14.897,29.162,15.215
		c2.535,0.317,4.12,0.317,6.657-0.317c2.534-0.633,25.355-14.579,28.21-13.312c1.268,1.584-5.072,7.606-5.072,7.606L109.36,127.27
		l-15.849-2.535L74.494,108.251z"/>
	<path fill="#AEADAE" d="M75.759,108.886c0,0,22.822,10.144,27.576,13.63c6.023,2.536,9.51,0.951,9.51,0.951
		s24.407-14.899,27.575-14.265c0,0,2.748,15.85,0.267,16.166c-2.484,0.316-18.965,6.655-23.403,12.044
		c-4.437,4.121-11.094,5.706-15.848,1.586c-4.755-4.122-10.777-6.975-10.777-6.975s-13.946-7.606-16.483-6.339
		c-2.536-2.536,0.317-17.434,0.317-17.434L75.759,108.886z"/>
	<path fill="#AEADAE" d="M75.495,124.806l1.217,0.613c0,0,1.822,8.811,3.17,9.192c1.347,0.383,15.492,8.771,21.871,14.096
		c1.348,9.96,3.011,46.042,2.298,47.421c-0.713,1.38-7.607,9.653-8.795,10.111c-1.189,0.46-3.039-2.28-3.039-2.28
		s0.899,1.477,1.612,0.787c0.713-0.689,7.289-8.388,7.25-9.652c0.833-1.954-1.901-39.875-1.783-45.046
		c-1.426-4.021-17.948-13.444-22.703-14.479C73.978,132.466,75.348,125.534,75.495,124.806z"/>
	<path fill="#AEADAE" d="M141.033,124.45l-1.799,0.662c0,0-1.039,8.819-2.378,9.229c-1.339,0.411-15.303,9.078-21.567,14.528
		c-1.136,9.983-2.03,46.091-1.288,47.456c0.741,1.363,7.811,9.499,9.009,9.935s2.808-2.452,2.808-2.452s-0.686,1.606-1.414,0.931
		c-0.728-0.676-7.466-8.242-7.454-9.507c-0.873-1.936,1.054-39.902,0.825-45.071c1.339-4.049,17.658-13.798,22.388-14.926
		C142.712,132.08,141.196,125.176,141.033,124.45z"/>
</g>
</svg>
