<?xml version="1.0" encoding="utf-8"?>
<!-- Generator: Adobe Illustrator 16.0.0, SVG Export Plug-In . SVG Version: 6.00 Build 0)  -->
<!DOCTYPE svg PUBLIC "-//W3C//DTD SVG 1.1//EN" "http://www.w3.org/Graphics/SVG/1.1/DTD/svg11.dtd">
<svg version="1.1" id="Layer_1" xmlns="http://www.w3.org/2000/svg" xmlns:xlink="http://www.w3.org/1999/xlink" x="0px" y="0px"
	 width="216px" height="216px" viewBox="0 0 216 216" enable-background="new 0 0 216 216" xml:space="preserve">
<path fill="#BFBFBF" d="M65.536,109.526c0,0,7.702-44.834,33.409-46.393c19.776-0.735,22.502,0.606,22.502,0.606
	s28.996,8.395,31.074,46.825L65.536,109.526z"/>
<path fill="#BFBFBF" d="M107.427,8.259c0,0-21.119,38.689-7.097,47.777c9.607-3.115,9.607-3.115,9.607-3.115l9.348,3.895
	C119.285,56.816,135.73,50.324,107.427,8.259z"/>
<path fill="#BFBFBF" d="M109.35,52.528c0,0,5.15-11.317,9.023-15.25c3.875-3.932,6.408-4.9,6.408-4.9l-4.527,23.247L109.35,52.528z"
	/>
<path fill="#BFBFBF" d="M111.977,49.769c0,0-5.8-13.441-10.305-18.05c-4.502-4.608-7.494-5.696-7.494-5.696l4.697,27.792
	L111.977,49.769z"/>
<path fill="#BFBFBF" d="M120.326,43.697c0,0,2.014-16.233,0.207-23.745c-1.805-7.512-4.146-10.78-4.146-10.78l-11.41,27.911
	L120.326,43.697z"/>
<path fill="#37393A" d="M68.133,100.178c0,0,8.656-26.484,40.507-26.484c31.852,0,42.239,26.312,42.239,26.312
	s4.729,25.06,6.057,26.657c5.105,6.146,3.375,23.111,3.375,23.111l15.32,10.386c0,0-4.154,29.859-21.291,41.631
	c-15.926-8.308-18.695-10.386-18.695-10.386s-31.159,14.541-51.931-1.386c-16.618,10.386-22.332,11.945-22.332,11.945
	s-17.137-22.852-20.252-42.411l15.58-10.386c0,0,1.556-18.09,6.231-22.851C64.325,115.238,66.66,103.467,68.133,100.178z"/>
<path fill="#020202" d="M81.894,82.262c0,0-4.894-9.044,1.128-12.463c6.403-3.636,6.663-3.636,6.663-3.636s-3.203,9.175,0.26,11.945
	C83.713,80.877,81.894,82.262,81.894,82.262z"/>
<path fill="#020202" d="M135.123,81.743c0,0,5.279-7.271-0.258-11.425c-6.232-2.77-6.947-3.548-6.947-3.548
	s2.771,8.308-0.691,11.078C133.457,80.618,135.123,81.743,135.123,81.743z"/>
<path fill="#E5CA5A" d="M55.949,179.453c5.571,11.306,8.272,21.364,6.036,22.467c-2.236,1.102-8.564-7.171-14.136-18.478
	c-5.568-11.304-8.696-23.22-6.46-24.321C43.625,158.02,50.379,168.148,55.949,179.453z"/>
<path fill="#E5CA5A" d="M161.213,179.453c-5.57,11.306-8.275,21.364-6.037,22.467c2.236,1.102,8.564-7.171,14.135-18.478
	c5.568-11.304,8.295-22.699,6.061-23.803C173.135,158.537,166.783,168.148,161.213,179.453z"/>
<ellipse transform="matrix(-0.9505 -0.3107 0.3107 -0.9505 117.1458 243.6014)" fill="#020202" cx="77.975" cy="112.47" rx="9.339" ry="17.424"/>
<path fill="#020202" d="M148.131,109.568c2.99,9.146,1.439,17.861-3.463,19.463c-4.904,1.603-11.301-4.513-14.289-13.659
	c-2.992-9.147-1.441-17.861,3.461-19.463C138.746,94.305,145.141,100.42,148.131,109.568z"/>
<path fill="#5B5C5C" d="M82.673,142.762c0,0,14.281-31.938,26.485-31.938c14.541,0,27.264,33.235,27.264,33.235
	s-15.32-30.64-27.264-30.64C99.811,113.42,82.673,142.762,82.673,142.762z"/>
<path fill="#444749" d="M100.33,63.134c0,0-1.558-5.886,0.52-7.098c2.077-1.211,10.561-6.75,18.955,0.78
	c0.779,4.933-0.26,6.491-0.26,6.491L100.33,63.134z"/>
<path fill="#848484" d="M98.772,166.909l-1.299,1.3c0,0,7.011,12.981,8.829,13.243c1.817,0.259,1.817,0.259,1.817,0.259
	L98.772,166.909z"/>
<path fill="#848484" d="M86.141,172.52l-0.663,0.879c0,0,0.843,10.143,1.486,10.46c0.643,0.32,0.643,0.32,0.643,0.32L86.141,172.52z
	"/>
<path fill="#848484" d="M122.748,170.503l-1.322,0.462c0,0,1.549,10.827,2.82,11.566c1.27,0.737,1.27,0.737,1.27,0.737
	L122.748,170.503z"/>
<path fill="#848484" d="M102.365,80.92l0.044,1.598c0,0,11.664-0.565,12.839-1.965c1.174-1.401,1.174-1.401,1.174-1.401
	L102.365,80.92z"/>
<path fill="#848484" d="M102.82,83.25l-0.245,1.217c0,0,8.929,1.615,10.064,0.762c1.133-0.856,1.133-0.856,1.133-0.856L102.82,83.25
	z"/>
<path fill="#848484" d="M101.462,89.335l0.175,1.59c0,0,11.58-1.511,12.636-3.001c1.057-1.491,1.057-1.491,1.057-1.491
	L101.462,89.335z"/>
<path fill="#848484" d="M119.025,166.909l1.299,1.559c0,0-7.012,12.984-8.828,13.243c-1.818,0.26-1.818,0.26-1.818,0.26
	L119.025,166.909z"/>
<path fill="#848484" d="M96.229,172.233l0.855,1.048c0,0-4.617,8.729-5.814,8.903c-1.197,0.176-1.197,0.176-1.197,0.176
	L96.229,172.233z"/>
<path fill="#848484" d="M133.584,173.272l0.631,1.194c0,0-3.42,9.962-4.307,10.16c-0.885,0.198-0.885,0.198-0.885,0.198
	L133.584,173.272z"/>
<path fill="#5B5C5C" d="M115.584,134.679c0,0,4.547-2.761,6.332,4.547c1.787,7.309-1.461-2.273-3.41-2.436
	S114.771,137.114,115.584,134.679z"/>
<path fill="#5B5C5C" d="M103.044,135.1c0,0-4.599-2.792-6.406,4.6c-1.808,7.394,1.479-2.299,3.449-2.463
	C102.058,137.071,103.866,137.565,103.044,135.1z"/>
</svg>
