<?xml version="1.0" encoding="utf-8"?>
<!-- Generator: Adobe Illustrator 16.0.0, SVG Export Plug-In . SVG Version: 6.00 Build 0)  -->
<!DOCTYPE svg PUBLIC "-//W3C//DTD SVG 1.1//EN" "http://www.w3.org/Graphics/SVG/1.1/DTD/svg11.dtd">
<svg version="1.1" id="Layer_1" xmlns="http://www.w3.org/2000/svg" xmlns:xlink="http://www.w3.org/1999/xlink" x="0px" y="0px"
	 width="216px" height="216px" viewBox="0 0 216 216" enable-background="new 0 0 216 216" xml:space="preserve">
<path fill="#26323A" d="M50.006,113.534l119.931,2.619l-3.141,27.758l-13.617,21.473c0,0-17.807,29.327-24.093,32.994
	c-6.283,3.665-36.659,1.048-36.659,1.048s-33.517-38.757-36.136-48.183C53.672,141.815,50.006,113.534,50.006,113.534z"/>
<polygon fill="#3D58A7" points="53.148,99.395 40.58,107.251 44.77,138.15 69.646,171.667 67.812,159.098 54.72,138.674 
	55.244,117.725 "/>
<polygon fill="#3D58A7" points="165.484,100.182 177.27,107.251 173.079,138.15 149.514,171.145 150.036,159.098 163.13,138.674 
	162.605,117.725 "/>
<path fill="#992820" d="M109.187,104.37c12.044,0,32.476-6.636,43.468-9.688c12.568-3.491,16.234,5.761,12.568,16.758
	c-3.665,10.998-15.709,27.496-26.708,27.233s-13.617-7.855-19.902-12.045c-6.284-4.19-15.763-3.184-19.9-0.525
	c-4.888,3.145-9.165,13.617-18.854,13.095c-9.689-0.524-29.328-20.426-27.757-34.042c1.571-13.617,9.951-11.521,15.711-9.427
	C73.574,97.824,97.4,104.37,109.187,104.37z"/>
<path fill="#E94724" d="M57.426,103.497c0,0,49.055,17.632,103.695,0c0.698,6.635-0.522,6.46-0.522,6.46
	s-51.499,18.506-103.347-1.222C56.379,104.197,57.426,103.497,57.426,103.497z"/>
<path fill="#CCCCCC" d="M165.78,68.104c0,0,8.948,27.585-0.33,44.418c-3.315-14.961-5.304-14.494-5.968-23.378
	c-0.663-8.884-7.621-21.975-9.944-16.833c-2.317,5.143-3.645,7.014-3.645,7.014s0-22.442,1.656-21.508
	c-15.909,1.403-34.801,0.468-37.784,7.948C119.71,48.465,127,46.595,127,46.595S83.582,47.999,78.941,64.83
	c0.331-8.884,1.658-13.092,1.658-13.092S59.385,76.519,65.351,94.287c-8.286-8.417-8.616-11.222-8.616-12.624
	c3.313,15.897-1.99,23.844-1.99,23.844l-1.074,6.981c0,0-1.206-10.998-4.189-10.998c-2.982,0,6.257-2.061,1.618-10.01
	c-4.641-7.948-7.293-24.78-4.641-30.391c3.315,11.221,6.96,12.625,6.96,12.625s10.608-26.651,1.327-34.6
	c-9.281-7.949,12.926,2.805,21.543-1.402C66.346,22.75,66.4,23.38,69.384,14.03c5.965,11.689,27.814,7.487,32.471,9.951
	c5.302,2.805,18.186,8.589,18.186,8.589s-4.357-1.913-0.381-11.732c9.28,17.768,23.249,20.148,29.217,17.81
	c5.966-2.338,15.91-2.805,15.91-2.805s-6.298,10.288-5.305,15.43C160.476,56.414,165.78,68.104,165.78,68.104z"/>
<path fill="#EA9C92" d="M119.66,103.323c0,0,3.667-7.595,5.237-8.641c2.096-0.261,0.262-2.62,0.262-2.62s5.238-6.807,4.713-7.332
	c-0.522-0.523-0.786-1.833-0.786-1.833l2.356-0.523l2.62-3.143l-3.143,6.547l-1.834,2.357l-0.522,2.094l-0.786,2.358l-1.57,2.88
	l-4.452,7.593L119.66,103.323z"/>
</svg>
