<?xml version="1.0" encoding="utf-8"?>
<!-- Generator: Adobe Illustrator 16.0.0, SVG Export Plug-In . SVG Version: 6.00 Build 0)  -->
<!DOCTYPE svg PUBLIC "-//W3C//DTD SVG 1.1//EN" "http://www.w3.org/Graphics/SVG/1.1/DTD/svg11.dtd">
<svg version="1.1" id="Layer_1" xmlns="http://www.w3.org/2000/svg" xmlns:xlink="http://www.w3.org/1999/xlink" x="0px" y="0px"
	 width="216px" height="216px" viewBox="0 0 216 216" enable-background="new 0 0 216 216" xml:space="preserve">
<g>
	<path fill="none" stroke="#B18A6F" stroke-width="5" stroke-linejoin="round" stroke-miterlimit="10" d="M84.896,102.965
		c0,0-13.879-6.092-2.653,18.701c2.18,6.975,6.8,12.922,7.454,6.709c-0.364,3.453-0.893,12.355,6.316,21.674
		c7.525,9.727,26.627,23.988,33.678,26.156c4.252,1.311,6.538,1.637,13.732-1.961c2.374-1.189,20.899-13.053,28.773-21.908
		c6.745-7.586,7.686-20.979,8.431-28.434c3.726,3.725,4.521-4.82,6.705-12.67c6.54-18.965,2.071-20.725-4.471-22.361
		c2.886-17.092-3.263-27.434-11.648-36.797c-27.86-19.544-33.822-22.081-70.623-3.06C73.508,63.011,84.896,102.965,84.896,102.965z"
		/>
	<path fill="#8F8A93" stroke="#8F8A93" stroke-width="2" stroke-linejoin="round" stroke-miterlimit="10" d="M152.266,59.589
		c0,0,23.478,9.503,25.154,33.54c0.561,9.503,0.561,9.503,0.561,9.503s2.055-16.96,7.454-14.909
		c2.188-11.921-0.741-36.678-30.192-48.99C113.239,58.407,152.266,59.589,152.266,59.589z"/>
	<linearGradient id="SVGID_1_" gradientUnits="userSpaceOnUse" x1="29.3081" y1="189.6719" x2="133.5194" y2="9.1726">
		<stop  offset="0" style="stop-color:#7F3F98"/>
		<stop  offset="0.6217" style="stop-color:#190E1F"/>
	</linearGradient>
	<path fill="url(#SVGID_1_)" d="M134.583,67.512c0,0-14.834-23.24-37.118-2.366c-16.637,21.664,23.632,89.372-28.826,127.235
		c-15.372,9.504-24.175,10.342-34.099-2.793c9.503,12.576,32.702-2.236,35.496-23.758c-15.961,40.27-57.017,12.58-56.738-2.236
		c3.913,14.256,37.732,22.361,53.104-18.166c-16.77,25.992-32.142,19.283-43.042,10.9c18.419,5.398,34.379-29.906,29.068-59.255
		c1.24-8.571-14.533-17.143,2.794-31.303c48.634-41.646,36.614-50.869,72.668-57.577c13.623,2.001,16.77,10.619,21.427,18.073
		c9.888,15.817,6.71,17.143,6.71,17.143s-4.1-1.118-6.334,5.591c-2.795,0.559-4.474-0.559-7.269,9.503
		C139.632,60.18,136.437,62.988,134.583,67.512z"/>
	<path fill="#88439A" d="M153.577,61.642c0,0,9.523-20.232,12.751-19.675c6.428,1.111,6.688,6.4,6.688,6.4l-11.768,17.725
		L153.577,61.642z"/>
	<path fill="#88439A" d="M164.814,71.775c0,0,15.387-13.552,17.744-12.636c2.357,0.917,2.75,6.881,2.75,6.881L169.723,77.76
		L164.814,71.775z"/>
	<path fill="#3A393A" d="M153.619,61.427l7.979,4.295c0,0-5.524,6.138-7.979,5.523C151.165,70.632,153.619,61.427,153.619,61.427z"
		/>
	<path fill="#3A393A" d="M165.252,71.428l4.533,6.296c0,0-6.737,3.158-8.574,1.791C159.377,78.148,165.252,71.428,165.252,71.428z"
		/>
	<g>
		<path fill="#331E3D" d="M126.674,100.418c0,0-11.899-5.802-15.915-6.997c-1.238,2.223-2.297,3.288-2.297,3.288l15.764,4.756
			L126.674,100.418z"/>
		<path fill="#331E3D" d="M110.191,92.973l-2.78,3.469c0,0-1.668-0.812-4.247-0.812c-2.579,0-7.414,5.157-7.414,5.157
			s2.256-6.769,7.091-9.669C106.386,91.763,107.29,92.115,110.191,92.973z"/>
	</g>
	<g>
		<path fill="#331E3D" d="M138.792,100.233c0,0,11.899-5.804,15.916-6.998c1.237,2.223,2.297,3.288,2.297,3.288l-15.763,4.757
			L138.792,100.233z"/>
		<path fill="#331E3D" d="M155.273,92.788l2.782,3.468c0,0,1.668-0.811,4.246-0.811c2.58,0,7.416,5.157,7.416,5.157
			s-2.258-6.77-7.093-9.669C159.079,91.576,158.177,91.928,155.273,92.788z"/>
	</g>
	<path fill="#FFFFFF" d="M37.876,84.191c0,0,22.364-43.804,26.309-43.552"/>
	<path fill="#FFFFFF" d="M52.148,94l-27.67,62.607c0,0,20.683,5.59,37.639-15.559C78.523,120.586,63.351,112.26,52.148,94z"/>
</g>
</svg>
