<?xml version="1.0" encoding="utf-8"?>
<!-- Generator: Adobe Illustrator 16.0.0, SVG Export Plug-In . SVG Version: 6.00 Build 0)  -->
<!DOCTYPE svg PUBLIC "-//W3C//DTD SVG 1.1//EN" "http://www.w3.org/Graphics/SVG/1.1/DTD/svg11.dtd">
<svg version="1.1" id="Layer_1" xmlns="http://www.w3.org/2000/svg" xmlns:xlink="http://www.w3.org/1999/xlink" x="0px" y="0px"
	 width="216px" height="216px" viewBox="0 0 216 216" enable-background="new 0 0 216 216" xml:space="preserve">
<g>
	<path fill="#352419" d="M105.517,28.798c0,0,51.278,2.805,53.279,43.266c2.005,40.461,22.086,101.212-10.321,130.153
		c3.985-9.186,5.894-14.384,5.372-18.718c-5.024,11.785-3.64,9.187-15.597,23.223c5.979-16.116,4.245-11.438,5.979-19.236
		c-1.56,4.679-1.819,6.413-10.138,16.377c6.052-16.397-4.76-35.237-7.538-41.072c-0.759-1.593-24.748-5.573-26.537-9.618
		C86.743,123.187,69.864,26.681,105.517,28.798z"/>
	<path fill="#352419" d="M92,28.798c0,0,51.279,2.805,53.28,43.266c2.004,40.461,22.085,101.212-10.321,130.153
		c3.986-9.186,5.893-14.384,5.371-18.718c-5.024,11.785-3.639,9.187-15.597,23.223c5.979-16.116,4.245-11.438,5.979-19.236
		c-1.56,4.679-1.819,6.413-10.138,16.377c6.052-16.397-4.76-35.237-7.538-41.072c-0.759-1.593-24.747-5.573-26.537-9.618
		C73.227,123.187,56.346,26.681,92,28.798z"/>
	<path fill="#352419" d="M89.727,34.117c0,0,39.339-2.514,41.343,37.948c2.003,40.461,22.084,101.212-10.323,130.153
		c3.986-9.186,5.894-14.384,5.373-18.718c-5.025,11.785-3.641,9.187-15.597,23.223c5.978-16.116,4.245-11.438,5.978-19.236
		c-1.559,4.679-0.345,6.153-8.665,16.116c6.052-16.396-6.232-34.977-9.011-40.812c-0.759-1.593-24.748-5.573-26.537-9.618
		C59.016,123.187,54.074,32,89.727,34.117z"/>
	<path fill="#352419" d="M115.634,26.545c0,0-51.277,2.805-53.28,43.266c-2.003,40.461-22.083,101.211,10.322,130.153
		c-3.985-9.185-5.892-14.384-5.372-18.716c5.025,11.784,3.64,9.185,15.597,23.222c-5.979-16.117-4.246-11.438-5.979-19.237
		c1.56,4.681,1.821,6.414,10.139,16.378c-8.059-21.837,2.34-30.154,7.538-41.072c0.759-1.592,24.749-5.572,26.537-9.617
		C134.408,120.933,151.287,24.428,115.634,26.545z"/>
	<path fill="#352419" d="M129.499,26.545c0,0-51.279,2.805-53.281,43.266c-2.003,40.461-22.084,101.211,10.322,130.153
		c-3.986-9.185-5.893-14.384-5.373-18.716c5.027,11.784,3.64,9.185,15.598,23.222c-5.978-16.117-4.246-11.438-5.978-19.237
		c1.559,4.681,1.819,6.414,10.137,16.378c-8.058-21.837,2.34-30.154,7.539-41.072c0.758-1.592,24.747-5.572,26.537-9.617
		C148.271,120.933,165.151,24.428,129.499,26.545z"/>
	<path fill="#352419" d="M121.267,173.103c0.759-1.594,20.261-17.444,22.052-21.489c13.271-29.988,20.187-125.852-15.467-123.734
		c0,0-41.313,2.165-43.314,42.625c-2.004,40.461-22.085,101.213,10.322,130.153c-3.987-9.185-5.894-14.385-5.373-18.716
		c5.025,11.785,3.64,9.185,15.597,23.222c-5.979-16.118-4.245-11.439-5.979-19.237c1.56,4.68,0.413,7.714,8.73,17.677"/>
	
		<path fill="#FFFFFF" stroke="#B18566" stroke-width="5" stroke-linecap="round" stroke-linejoin="round" stroke-miterlimit="10" d="
		M70.021,69.539c0,0-11.374-3.064-2.215,14.926c1.777,5.06,6.228,4.865,6.76,0.356c-0.296,2.505-1.358,12.118,4.523,18.879
		c6.139,7.059,21.72,17.404,27.472,18.979c3.468,0.948,5.335,1.187,11.202-1.424c1.938-0.861,17.05-9.47,23.473-15.895
		c5.505-5.506,3.693-13.916,4.146-18.404c0.617,4.271,4.977,3.205,6.761-2.492c5.335-13.76,5.097-13.267-0.239-14.453
		c-1.146-12.187-5.262-31.609-11.469-36.535c-22.271-17.675-33.588-20.062-57.612-3.083C63.353,44.153,70.021,69.539,70.021,69.539z
		"/>
	<path fill="#51C6D8" d="M71.126,50.066c0,0,25.622,10.913,37.01,11.387c11.388,0.476,39.381-11.387,39.381-11.387
		s4.745,39.381-10.438,43.177c-6.168,0-7.592-2.372-7.592-2.372s-10.438-7.591-19.929-7.591c-9.489,0-17.556,7.116-17.556,7.116
		s-5.126,5.5-10.913,2.847C69.703,88.023,67.331,53.861,71.126,50.066z"/>
	<path fill="#B2B3B3" d="M96.809,14.361h24.377c0,0,22.151,14.59,26.644,22.642c0.268,5.337,0.135,8.674,0.135,8.674
		s-6.08-26.927-33.185-26.927"/>
	<path fill="#B2B3B3" d="M104.342,19.106c-25.385-0.712-33.3,26.57-33.3,26.57s-0.133-3.336,0.133-8.674
		c4.493-8.052,26.646-22.642,26.646-22.642h24.375"/>
	<path fill="#352419" d="M112.737,21.122l-1.068,24.199l5.456,0.237c0,0,6.29-4.722,10.558-4.864
		c7.116-0.237,20.166,10.083,20.166,10.083s3.327-11.67-0.806-13.522c-10.056-4.508-4.271-16.133-25.146-18.742
		C113.743,17.494,112.737,21.122,112.737,21.122z"/>
	<path fill="#352419" d="M106.531,21.122l1.067,24.199l-5.456,0.237c0,0-6.29-4.722-10.558-4.864
		c-7.117-0.237-20.166,10.083-20.166,10.083s-3.328-11.67,0.805-13.522c10.057-4.508,4.271-16.133,25.148-18.742
		C105.523,17.494,106.531,21.122,106.531,21.122z"/>
	<polygon fill="#E0E0E0" points="103.214,54.219 115.668,54.219 120.473,46.974 111.932,32.867 106.771,32.867 98.588,47.165 	"/>
	<polygon fill="#B2B3B3" points="107.129,33.798 105.171,16.853 115.136,16.497 111.932,34.102 111.575,39.091 114.779,45.663 
		103.392,46.21 106.951,39.274 	"/>
	<polygon fill="#B2B3B3" points="109.381,34.963 103.147,45.956 109.381,55.477 115.115,45.941 	"/>
	<polygon fill="#51C6D8" points="109.381,38.38 105.056,46.009 109.381,52.615 113.36,45.998 	"/>
	<path fill="#E0E0E0" d="M70.653,36.247c0,0-0.889-3.915-7.117-4.804c-3.737-5.516-6.939-11.21-6.939-11.21s-5.16,2.313-5.16,4.626
		l10.676,58.894l17.258,19.216l3.916-5.338L72.432,81.797L70.653,36.247z"/>
	<path fill="#E0E0E0" d="M148.408,36.247c0,0,0.889-3.915,7.117-4.804c3.735-5.516,6.939-11.21,6.939-11.21s5.159,2.313,5.159,4.626
		l-10.675,58.894l-17.261,19.216l-3.914-5.338l10.854-15.834L148.408,36.247z"/>
	<ellipse fill="#4DC5DA" cx="63.981" cy="49.891" rx="2.199" ry="10.92"/>
	<ellipse fill="#4DC5DA" cx="155.482" cy="50.755" rx="2.199" ry="11.784"/>
	<path fill="#E0E0E0" d="M67.284,86.368c0-0.431-0.349-0.781-0.779-0.781l0,0c-0.431,0-0.78,0.35-0.78,0.781v7.538
		c0,0.431,0.349,0.779,0.78,0.779l0,0c0.431,0,0.779-0.348,0.779-0.779V86.368z"/>
	<path fill="#E0E0E0" d="M154.887,86.368c0-0.431-0.35-0.781-0.78-0.781l0,0c-0.43,0-0.779,0.35-0.779,0.781v7.538
		c0,0.431,0.35,0.779,0.779,0.779l0,0c0.431,0,0.78-0.348,0.78-0.779V86.368z"/>
	<path fill="#4DC5DA" d="M157.313,117.301c0,1.724-1.397,3.12-3.119,3.12l0,0c-1.724,0-3.12-1.396-3.12-3.12V95.12
		c0-1.724,1.396-3.12,3.12-3.12l0,0c1.722,0,3.119,1.396,3.119,3.12V117.301z"/>
	<path fill="#4DC5DA" d="M69.624,118.688c0,1.722-1.396,3.118-3.119,3.118l0,0c-1.723,0-3.12-1.396-3.12-3.118V96.506
		c0-1.724,1.396-3.12,3.12-3.12l0,0c1.724,0,3.119,1.396,3.119,3.12V118.688z"/>
</g>
</svg>
