<?xml version="1.0" encoding="utf-8"?>
<!-- Generator: Adobe Illustrator 16.0.0, SVG Export Plug-In . SVG Version: 6.00 Build 0)  -->
<!DOCTYPE svg PUBLIC "-//W3C//DTD SVG 1.1//EN" "http://www.w3.org/Graphics/SVG/1.1/DTD/svg11.dtd">
<svg version="1.1" id="Layer_1" xmlns="http://www.w3.org/2000/svg" xmlns:xlink="http://www.w3.org/1999/xlink" x="0px" y="0px"
	 width="216px" height="216px" viewBox="0 0 216 216" enable-background="new 0 0 216 216" xml:space="preserve">
<path fill="#ABABAB" d="M78.161,40.404c0,0-4.205,18.208,0.664,18.057c-1.167-7.337-3.179-23.432,18.952-31.191
	c12.934-2.875,12.934-2.875,12.934-2.875l13.795,4.311c0,0,18.382,2.95,18.963,30.073c3.168,0.68,0.384-22.487-0.191-20.475
	c-0.574,2.012,6.651-1.4,6.651-1.4s-7.7-26.521-39.122-26.521c-30.545,0-38.248,28.271-38.248,28.271L78.161,40.404z"/>
<path fill="#727373" d="M77.197,63.859c0,0,0.294-6.288,4.742-6.426c-1.065-6.702-2.904-21.406,17.314-28.495
	c11.815-2.625,11.815-2.625,11.815-2.625l12.604,3.938c0,0,16.791,2.695,17.324,27.473c2.894,0.622,4.468,3.772,3.944,5.61
	c-0.526,1.838,3.148,0,3.148,0s3.416-42.274-37.021-42.274c-40.435,0-37.809,42.274-37.809,42.274L77.197,63.859z"/>
<path fill="#FFFFFF" stroke="#ECBF9D" stroke-width="3" stroke-linecap="round" stroke-linejoin="round" stroke-miterlimit="10" d="
	M81.939,57.433c0,0-8.465,0.291-1.86,11.321c1.282,3.104,4.745,3.517,5.13,0.752c-0.214,1.537-0.971,4.728,3.269,8.875
	c4.429,4.328,15.667,10.671,19.815,11.636c2.502,0.583,3.848,0.728,8.079-0.872c1.397-0.528,12.297-5.808,16.93-9.746
	c3.968-3.376,3.459-6.412,3.786-9.166c0.445,2.619,4.354,0.875,5.639-2.618c3.849-8.438,2.116-9.165-1.729-9.892
	c-0.83-7.472-3.797-19.382-8.274-22.402c-16.061-10.838-24.225-12.301-41.55-1.891C77.129,41.868,81.939,57.433,81.939,57.433z"/>
<path fill="#EADFBB" d="M83.012,65.075c0,0-19.401-3.448-19.401-7.73c0-4.283-4.282,9.42,6.851,14.988
	c-11.133,0.857-20.555,0.429-20.555,0.429s21.84,15.416,14.988,21.411s-20.555,23.98-16.272,57.382
	c-1.285,5.995-9.421,9.849-4.282,19.699c5.138,9.849-5.139,9.849-2.998,16.272c2.141,6.423,11.99,12.418,17.129,10.706
	c5.139-1.713,8.136-12.419,8.136-12.419s0.856-8.564,5.139-8.564c4.282,0,4.71-17.13,2.569-21.411
	c5.995-1.284,35.971-13.275,35.971-32.974c0-13.899-0.582-31.186-0.582-40.802H96.573l0.428-7.28L83.012,65.075z"/>
<path fill="#EADFBB" d="M136.836,65.075c0,0,19.402-3.448,19.402-7.73c0-4.283,4.282,9.42-6.852,14.988
	c11.134,0.857,20.556,0.429,20.556,0.429s-21.841,15.416-14.989,21.411c6.853,5.995,20.555,23.98,16.273,57.382
	c1.284,5.995,9.421,9.849,4.281,19.699c-5.138,9.849,5.14,9.849,2.998,16.272c-2.141,6.423-11.99,12.418-17.129,10.706
	c-5.139-1.713-8.137-12.419-8.137-12.419s-0.855-8.564-5.139-8.564c-4.281,0-4.71-17.13-2.569-21.411
	c-5.995-1.284-35.97-13.275-35.97-32.974s0.143-40.802,0.143-40.802l14.417-0.285L136.836,65.075z"/>
<path fill="#FBECCA" d="M108.562,69.785c0,0-11.45-5.268-21.784,1.006c-10.333,6.274-12.045,9.272-20.61,7.559
	C57.604,76.637,101.283,98.048,108.562,69.785z"/>
<path fill="#FBECCA" d="M112.023,69.785c0,0,11.451-5.268,21.784,1.006c10.334,6.274,12.046,9.272,20.61,7.559
	S119.304,98.048,112.023,69.785z"/>
<path fill="#EADFBB" d="M105.708,57.01c0,0,2.855,1.428,1.999-2.854c-2.569-4.854-14.559-14.274-14.559-14.274
	s-1.429,4.567,0.569,6.566c-3.996,0.285-5.423,3.711-5.423,3.711L105.708,57.01z"/>
<path fill="#EADFBB" d="M115.719,57.224c0,0-2.856,1.428-1.999-2.855c2.569-4.853,14.56-14.274,14.56-14.274
	s1.428,4.568-0.571,6.566c3.996,0.285,5.425,3.711,5.425,3.711L115.719,57.224z"/>
<path fill="#FFFFFF" d="M47.755,151.577c0,0,8.276,4.427,11.417,8.28c11.419,0,15.561-2.856,16.703-1.429
	c1.127,1.409-0.714-2.713-0.714-2.713l-14.848,2.287c0,0-8.848-9.994-12.702-8.139C48.479,151.839,47.755,151.577,47.755,151.577z"
	/>
<path fill="#FFFFFF" d="M171.592,151.577c0,0-8.275,4.427-11.417,8.28c-11.419,0-15.561-2.856-16.703-1.429
	c-1.127,1.409,0.715-2.713,0.715-2.713l14.848,2.287c0,0,8.849-9.994,12.701-8.139C170.867,151.839,171.592,151.577,171.592,151.577
	z"/>
<path fill="#A02323" d="M90.292,55.225c3.425-1.284,15.132-0.856,17.844,1.928c2.711,2.784-8.851,11.776-11.849,11.776
	c-2.997,0-10.277-2.998-11.562-5.567C83.441,60.793,86.867,56.51,90.292,55.225z"/>
<circle fill="#EFE23C" cx="90.72" cy="61.221" r="2.997"/>
<circle fill="#EFE23C" cx="101.995" cy="60.268" r="2.141"/>
<path fill="#ABABAB" d="M43.545,178.557c0,0,7.91,7.232,23.062,6.346c-2.135,10.488-4.901,18.294-7.002,18.995
	c-2.1,0.699-21.532-3.083-23.806-9.452C34.881,191.874,39.451,180.377,43.545,178.557z"/>
<path fill="#ABABAB" d="M175.709,178.557c0,0-7.909,7.232-23.062,6.346c2.135,10.488,3.934,16.894,6.386,18.644
	c2.449,1.752,21.882-1.682,24.156-8.05C184.106,192.926,179.804,180.377,175.709,178.557z"/>
<radialGradient id="SVGID_1_" cx="212.1758" cy="673.0781" r="4.8441" gradientTransform="matrix(0.7753 -0.2002 0.0251 0.749 -140.5039 -272.3105)" gradientUnits="userSpaceOnUse">
	<stop  offset="0.0012" style="stop-color:#F26522"/>
	<stop  offset="1" style="stop-color:#F7DE03"/>
</radialGradient>
<path fill="url(#SVGID_1_)" d="M44.276,185.969c0.571,0.574,0.742,1.328,0.382,1.687l-5.469,5.455
	c-0.36,0.359-1.112,0.187-1.684-0.387l0,0c-0.571-0.572-0.743-1.326-0.382-1.685l5.469-5.455
	C42.951,185.226,43.705,185.399,44.276,185.969L44.276,185.969z"/>
<radialGradient id="SVGID_2_" cx="194.6016" cy="698.6836" r="4.845" gradientTransform="matrix(0.7693 -0.222 0.0463 0.748 -133.2158 -286.896)" gradientUnits="userSpaceOnUse">
	<stop  offset="0.0012" style="stop-color:#F26522"/>
	<stop  offset="1" style="stop-color:#F7DE03"/>
</radialGradient>
<path fill="url(#SVGID_2_)" d="M52.128,189.046c0.587,0.558,0.779,1.306,0.43,1.675l-5.312,5.607
	c-0.35,0.368-1.107,0.217-1.695-0.338l0,0c-0.586-0.558-0.779-1.306-0.43-1.675l5.312-5.607
	C50.784,188.339,51.541,188.491,52.128,189.046L52.128,189.046z"/>
<radialGradient id="SVGID_3_" cx="202.7373" cy="706.6484" r="4.8445" gradientTransform="matrix(0.7688 -0.2238 0.048 0.7478 -132.8047 -288.4399)" gradientUnits="userSpaceOnUse">
	<stop  offset="0.0012" style="stop-color:#F26522"/>
	<stop  offset="1" style="stop-color:#F7DE03"/>
</radialGradient>
<path fill="url(#SVGID_3_)" d="M60.26,191.139c0.589,0.557,0.783,1.304,0.434,1.674l-5.299,5.62
	c-0.348,0.369-1.106,0.219-1.695-0.335l0,0c-0.588-0.556-0.783-1.305-0.434-1.672l5.299-5.621
	C58.913,190.435,59.672,190.585,60.26,191.139L60.26,191.139z"/>
<radialGradient id="SVGID_4_" cx="-1550.1719" cy="202.7207" r="4.845" gradientTransform="matrix(-0.7753 -0.2002 -0.0251 0.749 -1020.3799 -272.3105)" gradientUnits="userSpaceOnUse">
	<stop  offset="0.0012" style="stop-color:#F26522"/>
	<stop  offset="1" style="stop-color:#F7DE03"/>
</radialGradient>
<path fill="url(#SVGID_4_)" d="M172.993,186.495c-0.569,0.572-0.742,1.326-0.38,1.687l5.469,5.455
	c0.357,0.357,1.111,0.185,1.684-0.388l0,0c0.569-0.572,0.742-1.326,0.381-1.686l-5.469-5.455
	C174.318,185.75,173.564,185.923,172.993,186.495L172.993,186.495z"/>
<radialGradient id="SVGID_5_" cx="-1565.4429" cy="177.0195" r="4.845" gradientTransform="matrix(-0.7693 -0.222 -0.0463 0.748 -1027.6685 -286.896)" gradientUnits="userSpaceOnUse">
	<stop  offset="0.0012" style="stop-color:#F26522"/>
	<stop  offset="1" style="stop-color:#F7DE03"/>
</radialGradient>
<path fill="url(#SVGID_5_)" d="M165.142,189.571c-0.587,0.556-0.779,1.306-0.431,1.675l5.313,5.607
	c0.349,0.368,1.107,0.217,1.695-0.339l0,0c0.586-0.557,0.778-1.306,0.429-1.674l-5.312-5.608
	C166.485,188.865,165.729,189.017,165.142,189.571L165.142,189.571z"/>
<radialGradient id="SVGID_6_" cx="-1557.0303" cy="180.6904" r="4.8445" gradientTransform="matrix(-0.7688 -0.2238 -0.048 0.7478 -1028.0806 -288.4399)" gradientUnits="userSpaceOnUse">
	<stop  offset="0.0012" style="stop-color:#F26522"/>
	<stop  offset="1" style="stop-color:#F7DE03"/>
</radialGradient>
<path fill="url(#SVGID_6_)" d="M157.009,191.665c-0.588,0.554-0.781,1.304-0.433,1.673l5.3,5.619c0.349,0.37,1.106,0.22,1.695-0.335
	l0,0c0.588-0.554,0.781-1.304,0.433-1.673l-5.299-5.619C158.356,190.961,157.598,191.111,157.009,191.665L157.009,191.665z"/>
<path fill="#FFFFFF" d="M42.951,171.767c0,0,7.589,8.31,10.741,12.177c11.173-2.577,13.177-6.159,17.476-5.301
	c1.777,0.354,3.436-3.723,3.436-3.723l-19.767,7.161c0,0-8.163-13.895-12.029-12.033C43.679,172.03,42.951,171.767,42.951,171.767z"
	/>
<path fill="#FFFFFF" d="M176.66,171.592c0,0-7.967,8.309-11.275,12.176c-11.726-2.577-13.829-6.159-18.341-5.3
	c-1.865,0.353-3.606-3.724-3.606-3.724l20.747,7.162c0,0,8.566-13.896,12.625-12.034C175.896,171.854,176.66,171.592,176.66,171.592
	z"/>
</svg>
