<?xml version="1.0" encoding="utf-8"?>
<!-- Generator: Adobe Illustrator 16.0.0, SVG Export Plug-In . SVG Version: 6.00 Build 0)  -->
<!DOCTYPE svg PUBLIC "-//W3C//DTD SVG 1.1//EN" "http://www.w3.org/Graphics/SVG/1.1/DTD/svg11.dtd">
<svg version="1.1" id="Layer_1" xmlns="http://www.w3.org/2000/svg" xmlns:xlink="http://www.w3.org/1999/xlink" x="0px" y="0px"
	 width="216px" height="216px" viewBox="0 0 216 216" enable-background="new 0 0 216 216" xml:space="preserve">
<path fill="none" stroke="#E9B88B" stroke-width="5" stroke-linejoin="round" stroke-miterlimit="10" d="M57.649,129.653
	l-1.408,6.866c0,0-11.672,8.674,3.067,25.807c2.407,7.113,6.468,8.361,9.031,2.926c1.511,7.135,21.042,37.596,35.853,38.595
	c14.811,0.998,23.31,0.351,26.808-3.314c3.501-3.668,26.928-23.311,27.949-37.116c4.271,5.784,9.271,3.986,11.329-4.132
	c4.536-5.424,9.646-20.047,1.587-25.583c-1.848-17.224-4.841-39.045-4.841-39.045L55.771,106.844L57.649,129.653z"/>
<linearGradient id="SVGID_1_" gradientUnits="userSpaceOnUse" x1="79.5151" y1="182.4629" x2="79.5151" y2="119.6924" gradientTransform="matrix(1.0128 -0.0477 0.0464 0.9989 25.8477 -13.3755)">
	<stop  offset="0.1394" style="stop-color:#FAB82E"/>
	<stop  offset="0.5179" style="stop-color:#F47B20"/>
</linearGradient>
<path fill="url(#SVGID_1_)" stroke="#F8D7B4" stroke-width="3" stroke-miterlimit="10" d="M65.603,126.22
	c0,0,4.103-27.847,20.366-21.212c16.263,6.639,20.413,14.132,27.691,13.617c7.253-0.515,20.623-17.5,30.935-17.769
	c13.34-0.345,29.762,46.237,4.912,60.761c-17.501,10.225-31.806-18.717-37.539-18.312c-7.253,0.516-14.58,20.003-27.261,21.102
	C77.465,165.035,60.082,151.174,65.603,126.22z"/>
<path fill="#4D2E20" d="M163.835,142.46c0,0,1.805-7.538,3.425-8.986c3.845-0.93,6.52,1.196,6.61,2.368
	c1.51-3.222,1.538-13.314,1.987-21.058c0.512-5.055-4.301-19.56-4.301-19.56l5.403-13.233l-17.802,0.416l-6.932-23.363
	c0,0-18.522-16.035-23.599-17.597c-2.775-3.632-4.338-13.006-4.338-13.006s-7.607,5.219-7.568,6.899
	c-5.149-4.585-24.655-19.588-27.929-30.267c-2.553,5.773-2.553,5.773-2.553,5.773L83.738,4.52c0,0-5.739,27.692,2.942,39.589
	c-14.701,3.704-14.701,3.704-14.701,3.704l-6.148-4.226l-2.866,6.789c0,0-23.339,7.939-30.775,6.097
	c8.289,9.553,22.49,13.253,24.857,13.87c2.366,0.616-24.151,16.359-24.151,16.359s12.522,3.741,14.513,2.686
	c-9.252,6.935-17.711,18.899-13.812,27.546c7.499-9.922,8.547-8.269,10.906-7.987c0.157,6.719,4.538,26.954,8.664,30.889
	c0.63,0.603,1.942-3.195,3.571-3.611c4.041,0.283,7.442,9.231,7.442,9.231s-3.427-9.998,2.529-21.229
	c44.869-0.208,56.806-14.437,76.91-24.445C153.329,100.059,165.296,114.193,163.835,142.46z"/>
<path fill="#4D2E20" d="M74.305,98.366"/>
</svg>
