<?xml version="1.0" encoding="utf-8"?>
<!-- Generator: Adobe Illustrator 16.0.0, SVG Export Plug-In . SVG Version: 6.00 Build 0)  -->
<!DOCTYPE svg PUBLIC "-//W3C//DTD SVG 1.1//EN" "http://www.w3.org/Graphics/SVG/1.1/DTD/svg11.dtd">
<svg version="1.1" id="Layer_1" xmlns="http://www.w3.org/2000/svg" xmlns:xlink="http://www.w3.org/1999/xlink" x="0px" y="0px"
	 width="216px" height="216px" viewBox="0 0 216 216" enable-background="new 0 0 216 216" xml:space="preserve">
<path fill="#2E3075" d="M103.613,197.616c55.162-28.765,79.188-134.687,46.7-153.638c9.477,2.708,7.484-2.03,7.484-20.93
	c-5.335,0.823-52.14-2.691-55.545,0.42c-0.338,14.89-0.602,18.652-4.054,20.849c-29.78,35.195,28.226,99.422-12.181,121.827
	c-34.18,18.95-78.005-57.698-42.979-92.217C-8.232,113.521,43.714,224.013,103.613,197.616z"/>
<polygon fill="#232455" points="113.427,27.058 102.251,23.468 101.244,41.609 111.058,36.533 "/>
<polygon fill="#232455" points="146.252,27.058 157.797,23.048 157.082,42.286 144.897,37.082 "/>
<path fill="#2A2A69" d="M87.512,59.467c0,0,12.377-27.835,42.328-27.333c29.949,0.501,41.146,29.062,41.146,29.062"/>
<path fill="#2A2A69" d="M137.909,50.069c4.57,0.507,7.614,4.061,7.614,4.061"/>
<path fill="#9CA3B4" d="M149.299,35.985c0,2.908-2.157,1.097-4.401,1.097h-29.948c-2.242,0-4.061,1.153-4.061-1.755v-3.511
	c1.691-3.29,1.818-5.265,4.061-5.265h29.948c2.244,0,2.878,2.633,4.062,5.265L149.299,35.985z"/>
<path fill="#FFFFFF" stroke="#7885C1" stroke-width="5" stroke-miterlimit="10" d="M94.128,117.632c0,0,2.288,20.46,9.846,26.234
	c7.735,5.908,19.862,17.24,26.483,17.24l0.668,0.008c6.621,0,16.944-10.992,24.434-17.248c7.104-5.934,11.222-28.868,11.222-28.868
	s1.655-10.724,0.552-13.735c-0.184-5.269-0.368-14.674-0.368-14.674l-73.939-1.694c0,0,0.919,13.735,1.471,15.993
	C93.944,104.274,93.208,114.622,94.128,117.632z"/>
<path fill="#2A2A69" d="M151.967,65.701c0,0,18.223-5.547,24.643,22.243c1.355,6.996-5.889,14.282-4.841,23.822
	c0.259,2.358-6.547,10.062-6.547,10.062s1.518-7.667,2.476-17.009c0.309-3.019-3.514,12.218-3.514,12.218l-1.518-5.91
	c0,0,1.347-4.609,1.181-9.015c-0.164-4.403,2.121-15.735-1.215-18.717C159.297,80.411,151.967,65.701,151.967,65.701z"/>
<path fill="#2A2A69" d="M109.463,63.305c0,0-18.223-5.548-24.643,22.243c-1.355,6.996,5.889,14.283,4.84,23.822
	c-0.259,2.357,6.547,10.062,6.547,10.062s-1.517-7.666-2.475-17.009c-0.31-3.02,3.513,12.218,3.513,12.218l1.518-5.908
	c0,0-1.346-4.612-1.183-9.016c0.166-4.405-2.12-15.735,1.216-18.718C102.133,78.016,109.463,63.305,109.463,63.305z"/>
<path fill="#31434C" d="M104.166,83.691c-1.687-2.915-6.081-12.432-6.081-12.432s-2.057-5.616-6.869-5.96
	c-2.389-5.23-3.92-10.761-6.431-10.291c0,0-5.824,9.169-5.997,13.539c-0.173,4.371,0.923,20.829,1.435,22.672
	c0.509,1.843,4.974,10.933,6.15,12.004c1.177,1.072,2.111,2.026,5.102,2.093C95.395,105.596,106.582,90.42,104.166,83.691z"/>
<ellipse transform="matrix(0.9966 0.0827 -0.0827 0.9966 8.1824 -7.2038)" fill="#EE3126" cx="91.038" cy="95.156" rx="4.646" ry="4.69"/>
<ellipse transform="matrix(0.9966 0.0826 -0.0826 0.9966 6.6742 -6.8952)" fill="#EE3126" cx="86.691" cy="77.235" rx="2.433" ry="2.456"/>
<path fill="#31434C" d="M155.766,83.691c1.688-2.915,6.081-12.432,6.081-12.432s2.058-5.616,6.868-5.96
	c2.39-5.23,3.923-10.761,6.432-10.291c0,0,5.825,9.169,5.998,13.539c0.174,4.371-0.923,20.829-1.435,22.672
	c-0.511,1.843-4.976,10.933-6.151,12.004c-1.177,1.072-2.111,2.026-5.102,2.093C164.539,105.596,153.352,90.42,155.766,83.691z"/>
<ellipse transform="matrix(-0.9966 0.0827 -0.0827 -0.9966 345.0797 176.0194)" fill="#EE3126" cx="168.895" cy="95.156" rx="4.647" ry="4.69"/>
<ellipse transform="matrix(-0.9966 0.0826 -0.0826 -0.9966 352.2688 139.9001)" fill="#EE3126" cx="173.241" cy="77.235" rx="2.433" ry="2.456"/>
<path fill="#2A2A69" d="M121.719,104.433c0,0-11.158-7.438-15.66-5.48c-4.502,1.957-5.481,2.74-5.481,2.74s6.069-2.74,9.396-1.566
	c3.329,1.174,9.788,5.676,9.788,5.676L121.719,104.433z"/>
<path fill="#2A2A69" d="M138.867,104.364c0,0,11.507-7.67,16.149-5.653c4.644,2.02,5.653,2.827,5.653,2.827s-6.259-2.827-9.69-1.615
	c-3.432,1.211-10.094,5.854-10.094,5.854L138.867,104.364z"/>
<path fill="#31434C" d="M129.332,29.257c10.151,0,41.653,25.383,41.653,31.939c0,6.555-4.369,17.917-7.429,18.355
	c-3.06,0.437-4.165,6.023-4.165,6.023L133.519,104.1c0,0-5.767,1.024-9.263-1.597c-3.496-2.622-21.72-15.012-21.72-15.012
	S98,81.3,95.815,79.551s-10.051-15.734-8.303-20.104C89.259,55.077,119.18,29.257,129.332,29.257z"/>
<circle fill="#EE3126" cx="129.467" cy="77.803" r="10.926"/>
<circle fill="#EE3126" cx="158.748" cy="64.254" r="3.277"/>
<circle fill="#EE3126" cx="100.185" cy="64.254" r="3.278"/>
<path fill="#393A89" d="M102.251,23.468c-2.023,3.251,11.175,3.589,11.175,3.589h32.825c0,0,11.506-0.677,11.545-4.01
	C151.329,8.106,109.012,9.051,102.251,23.468z"/>
</svg>
