<?xml version="1.0" encoding="utf-8"?>
<!-- Generator: Adobe Illustrator 16.0.0, SVG Export Plug-In . SVG Version: 6.00 Build 0)  -->
<!DOCTYPE svg PUBLIC "-//W3C//DTD SVG 1.1//EN" "http://www.w3.org/Graphics/SVG/1.1/DTD/svg11.dtd">
<svg version="1.1" id="Layer_1" xmlns="http://www.w3.org/2000/svg" xmlns:xlink="http://www.w3.org/1999/xlink" x="0px" y="0px"
	 width="216px" height="216px" viewBox="0 0 216 216" enable-background="new 0 0 216 216" xml:space="preserve">
<g>
	<path fill="#313E60" d="M57.582,57.854c0,0,1.301-12.571,3.469-12.571c2.167,0,2.167,5.635,2.167,5.635s4.336-15.605,6.068-15.605
		c1.735,0,2.168,5.202,2.168,5.202s5.203-12.138,6.936-12.138c1.734,0,1.734,4.769,1.734,4.769s5.635-12.571,8.235-12.571
		c2.601,0,2.167,3.901,2.167,3.901s6.069-9.103,8.236-8.668c2.167,0.433,4.335,2.167,4.335,2.167s4.768-5.202,7.368-5.202
		c2.602,0,1.735,3.468,1.735,3.468l-0.434,48.982H51.081L57.582,57.854z"/>
	<path fill="#313E60" d="M166.522,57.854c0,0-1.302-12.571-3.469-12.571s-2.167,5.635-2.167,5.635s-4.335-15.605-6.069-15.605
		c-1.733,0-2.167,5.202-2.167,5.202s-5.203-12.138-6.936-12.138c-1.733,0-1.733,4.769-1.733,4.769s-5.636-12.571-8.236-12.571
		c-2.6,0-2.167,3.901-2.167,3.901s-6.069-9.103-8.236-8.668c-2.167,0.433-4.335,2.167-4.335,2.167s-4.767-5.202-7.368-5.202
		c-2.601,0-1.733,3.468-1.733,3.468l0.433,48.982h60.686L166.522,57.854z"/>
	<g>
		<g>
			<path fill="#456189" d="M69.374,73.381c0,0,6.609-1.976,23.131,7.507c16.521,9.48,17.348,9.875,19.414,10.271
				c2.064,0.396,1.201,88.446,1.201,88.446s-19.019-2.801-25.628,3.521c-4.543,5.531-7.052,1.824-7.878,1.034
				c-0.827-0.789-17.262-21.497-15.61-25.841c1.653-4.347,5.37-6.717,5.37-6.717s-2.478-13.828-5.782-18.568
				c-3.306-4.74-12.393-15.406-12.393-18.172s-2.478-22.519,2.066-27.653C57.808,82.071,64.004,74.17,69.374,73.381z"/>
			<path fill="#456189" d="M153.955,73.381c0,0-6.485-1.976-22.699,7.507c-16.214,9.48-17.023,9.875-19.051,10.271
				c-2.026,0.396-0.223,88.283-0.223,88.283s19.182-2.762,26.658,3.684c4.305,5.653,6.892,1.579,7.702,0.79
				c0.812-0.79,14.503-21.253,12.881-25.597c-1.621-4.347-5.269-6.717-5.269-6.717s2.433-13.828,5.674-18.568
				c3.244-4.74,12.161-15.406,12.161-18.172s2.432-22.519-2.026-27.653C165.304,82.071,159.224,74.17,153.955,73.381z"/>
		</g>
		<ellipse fill="#456189" cx="113.121" cy="187" rx="31.048" ry="9.672"/>
	</g>
	
		<rect x="123.903" y="102.067" fill="none" stroke="#292B2D" stroke-width="2" stroke-miterlimit="10" width="25.097" height="13.569"/>
	
		<rect x="75.789" y="102.067" fill="none" stroke="#292B2D" stroke-width="2" stroke-miterlimit="10" width="25.096" height="13.569"/>
	<path fill="#292B2D" d="M98.863,137.447c0,0-5.351-10.701,0-10.701c5.796,4.012,12.486,15.605,12.486,15.605
		s-8.474-9.364-11.595-8.917C99.31,136.109,98.863,137.447,98.863,137.447z"/>
	<path fill="#292B2D" d="M126.358,137.447c0,0,5.351-10.701,0-10.701c-5.797,4.012-12.485,15.605-12.485,15.605
		s8.472-9.364,11.592-8.917C125.911,136.109,126.358,137.447,126.358,137.447z"/>
	<path fill="#292B2D" d="M100.062,106.403c0,0,10.133-5.581,24.437,0.054c0,3.035-0.163,3.847-0.163,3.847
		s-16.255-4.66-24.273,0.434C99.629,108.136,100.062,106.403,100.062,106.403z"/>
	<g>
		<path fill="#9AA3AA" d="M62.786,94.265l-7.308-2.045l1.037-25.329L81.65,54.615c0,0,14.711-28.837,30.494-28.837
			c0,0,2.639,68.994,0.292,68.976c-2.36-0.019-13.25-1.267-13.25-1.267L80.481,73.613l-11.626,7.215
			C68.854,80.828,64.81,91.828,62.786,94.265z"/>
		<path fill="#9AA3AA" d="M57.714,91.733c0,0,14.214-18.998,23.69-15.49c7.783,7.015,14.843,18.122,18.227,18.414
			c3.384,0.293,13.536,0.584,13.536,0.584l-2.998-26.597c0,0-42.641-1.461-48.055,7.014c-5.415,8.478-6.768,16.075-6.768,16.075
			H57.714z"/>
	</g>
	<g>
		<path fill="#9AA3AA" d="M168.746,92.026l5.605-2.045l-6.723-23.09l-25.135-12.275c0,0-14.711-28.837-30.492-28.837
			c0,0-2.789,69.287-0.442,69.269c2.604-0.021,2.405,1.031,13.399-1.56l18.705-19.874l13.443,5.553
			C157.107,79.167,166.721,89.588,168.746,92.026z"/>
		<path fill="#9AA3AA" d="M169.038,91.733c0,0-16.82-18.998-26.298-15.49c-4.914,4.428-17.815,18.212-18.32,18.316
			c-3.313,0.682-2.794,0.388-13.056,0.682l2.563-27.474c0,0,42.688-0.584,48.102,7.891c5.417,8.478,9.64,14.614,9.64,14.614
			L169.038,91.733z"/>
	</g>
	<path fill="#838A8E" d="M55.346,91.733l7.44,2.531c0,0,0.433,10.404,3.467,12.571c3.034,2.167,3.902,9.536,3.902,13.437
		c0,3.901-3.902,2.168-3.902,2.168l-2.601,6.936l5.202,15.171l0.52,7.055l-14.392-5.319l-4.768-16.474l-0.867-7.368
		c0,0-9.969-6.502-11.27-10.837c-1.3-4.334,0-36.845,0-36.845S45.88,57.42,60.618,57.42C60.618,71.725,55.346,91.733,55.346,91.733z
		"/>
	<path fill="#838A8E" d="M167.61,91.733l-7.438,2.531c0,0-0.436,10.404-3.467,12.571c-3.036,2.167-3.903,9.536-3.903,13.437
		c0,3.901,3.903,2.168,3.903,2.168l2.601,6.936l-5.203,15.171l-0.521,7.055l14.392-5.319l4.769-16.474l0.865-7.368
		c0,0,9.972-6.502,11.271-10.837c1.3-4.334,0-36.845,0-36.845s-7.802-17.338-22.54-17.338
		C162.339,71.725,167.61,91.733,167.61,91.733z"/>
	<path fill="#838A8E" d="M79.798,184.556l4.01-9.882l7.152-2.385l-6.286,20.807C84.674,193.096,79.798,192.594,79.798,184.556z"/>
	<path fill="#838A8E" d="M73.31,143.44l4.863,9.49l-2.866,6.973l-11.65-18.349C63.657,141.555,67.222,138.189,73.31,143.44z"/>
	<path fill="#838A8E" d="M149.794,143.44l-4.861,9.49l2.864,6.973l11.651-18.349C159.448,141.555,155.883,138.189,149.794,143.44z"
		/>
	<path fill="#838A8E" d="M145.142,185.226l-3.9-10.552l-7.152-1.95l6.177,20.372C140.266,193.096,145.142,192.634,145.142,185.226z"
		/>
</g>
</svg>
