<?xml version="1.0" encoding="utf-8"?>
<!-- Generator: Adobe Illustrator 16.0.0, SVG Export Plug-In . SVG Version: 6.00 Build 0)  -->
<!DOCTYPE svg PUBLIC "-//W3C//DTD SVG 1.1//EN" "http://www.w3.org/Graphics/SVG/1.1/DTD/svg11.dtd">
<svg version="1.1" id="Layer_1" xmlns="http://www.w3.org/2000/svg" xmlns:xlink="http://www.w3.org/1999/xlink" x="0px" y="0px"
	 width="216px" height="216px" viewBox="0 0 216 216" enable-background="new 0 0 216 216" xml:space="preserve">
<g>
	<path fill="#D6D6D6" d="M172.459,76.063c0,26.754-14.832,49.799-36.177,60.236c-7.039-25.803-22.993-17.67-32.155-17.67
		c-7.06,0-10.047,4.307-13.694,20.031C66.169,129.71,48.74,105.065,48.74,76.063C48.74,39.505,76.434,9.87,110.6,9.87
		C144.764,9.87,172.459,39.505,172.459,76.063z"/>
	<path fill="#F0D020" d="M99.344,128.198c0,0,19.535-0.48,23.919,0c17.702,65.064,33.253,15.309,33.253,15.309
		s4.123-0.461,2.547,7.418c-1.577,7.879-32.31,45.705-32.31,45.705s-14.972,8.666-27.58,0.787
		c-9.455-10.242-35.027-44.059-35.461-47.281c-0.24-1.783,0.89-4.742,1.185-4.715C66.962,145.62,80.685,191.827,99.344,128.198z"/>
	<path fill="#D6D6D6" d="M62.924,108.372c0,0-18.127,1.576-18.912,8.668c-0.788,7.092-1.575,17.336,1.576,18.125
		c3.152,0.787,18.124,2.363,20.488,7.092s9.457,9.457,11.82,14.973c7.881,0.789,16.184-22.221,16.184-26.16
		C94.08,127.128,62.924,108.372,62.924,108.372z"/>
	<path fill="#D6D6D6" d="M159.148,108.372c0,0,18.125,1.576,18.91,8.668c0.787,7.092,1.576,17.336-1.576,18.125
		c-3.149,0.787-18.124,2.363-20.488,7.092s-9.455,9.457-11.82,14.973c-7.881,0.789-15.171-20.297-15.171-24.236
		C129.003,129.052,159.148,108.372,159.148,108.372z"/>
	<ellipse fill="#65C8CD" cx="110.223" cy="61.178" rx="5.21" ry="4.652"/>
	<path fill="#65C8CD" d="M99.535,63.659c0,2.569-2.331,4.652-5.21,4.652c-4.154,0-5.211-2.083-5.211-4.652
		c0-2.57,2.334-4.654,5.211-4.654C97.204,59.005,99.535,61.089,99.535,63.659z"/>
	<path fill="#65C8CD" d="M131.789,63.659c0,2.569-2.332,4.652-5.21,4.652c-2.877,0-5.211-2.083-5.211-4.652
		c0-2.568,1.058-4.654,5.211-4.654C129.457,59.005,131.789,61.089,131.789,63.659z"/>
	<ellipse fill="#65C8CD" cx="110.223" cy="46.795" rx="5.21" ry="4.652"/>
	<ellipse fill="#65C8CD" cx="93.847" cy="49.277" rx="5.21" ry="4.651"/>
	<ellipse fill="#65C8CD" cx="126.1" cy="49.277" rx="5.21" ry="4.651"/>
	<ellipse fill="#65C8CD" cx="110.223" cy="32.901" rx="5.21" ry="4.653"/>
	<ellipse fill="#65C8CD" cx="93.847" cy="35.382" rx="5.21" ry="4.653"/>
	<ellipse fill="#65C8CD" cx="126.1" cy="35.382" rx="5.21" ry="4.653"/>
	<path fill="#999999" d="M76.377,94.79c0.611,1.337,3.128,2.441,4.466,1.833l15.599-9.334c1.336-0.608,1.925-2.186,1.318-3.521l0,0
		c-0.608-1.338-2.187-1.928-3.523-1.319l-17.858,7.478c-1.335,0.607-1.246,2.569-0.639,3.907L76.377,94.79z"/>
	<path fill="#999999" d="M143.983,94.79c-0.609,1.337-3.128,2.441-4.465,1.833l-15.6-9.334c-1.336-0.608-1.924-2.186-1.319-3.521
		l0,0c0.608-1.338,2.188-1.928,3.524-1.319l17.859,7.478c1.335,0.607,1.244,2.569,0.64,3.907L143.983,94.79z"/>
	<polygon fill="#D6D6D6" points="93.51,134.179 96.872,123.108 126.388,123.108 129.003,132.993 139.091,133.39 130.125,105.713 
		89.773,106.503 	"/>
</g>
</svg>
